<?xml version="1.0" standalone="no"?>
<!DOCTYPE svg PUBLIC "-//W3C//DTD SVG 1.1//EN" "http://www.w3.org/Graphics/SVG/1.1/DTD/svg11.dtd" >
<svg xmlns="http://www.w3.org/2000/svg">
<metadata>Generated by IcoMoon</metadata>
<defs>
<font id="TotIconos" horiz-adv-x="512">
<font-face units-per-em="512" ascent="480" descent="-32" />
<missing-glyph horiz-adv-x="512" />
<glyph unicode="&#x20;" d="" horiz-adv-x="256" />
<glyph unicode="&#xe03d;" d="M0.403 45.168c-0.122 1.266-0.226 2.535-0.292 3.815 0.065-1.28 0.17-2.549 0.292-3.815zM117.954 197.426c46.005-1.369 76.867 46.349 68.931 106.599-7.947 60.24-51.698 108.584-97.704 109.961-46.013 1.365-76.87-44.741-68.926-105 7.941-60.234 51.676-110.187 97.699-111.56zM512 352v42.655c0 46.94-38.391 85.345-85.329 85.345h-341.328c-46.138 0-84.006-37.116-85.282-82.963 29.181 25.693 69.662 47.158 111.437 47.158 44.652 0 178.622 0 178.622 0l-39.974-33.809h-56.634c37.565-14.402 57.578-58.062 57.578-102.861 0-37.624-20.905-69.977-50.444-92.984-28.822-22.451-34.286-31.854-34.286-50.939 0-16.289 30.873-44 47.016-55.394 47.191-33.269 62.458-64.156 62.458-115.728 0-8.214-1.021-16.415-3.033-24.48h153.871c46.937 0 85.328 38.375 85.328 85.345v266.654h-96v-95.999h-32v96h-95.999v32h95.999v96h32v-96h96zM92.943 97.032c10.807 0 20.711 0.295 30.968 0.295-13.573 13.167-24.313 29.3-24.313 49.19 0 11.804 3.782 23.168 9.067 33.26-5.391-0.385-10.895-0.497-16.563-0.497-37.178 0-68.753 12.038-92.102 31.927v-33.621l0.003-100.865c26.72 12.687 58.444 20.311 92.94 20.311zM1.71 36.371c-0.556 2.729-0.983 5.503-1.271 8.317 0.287-2.814 0.715-5.588 1.271-8.317zM227.725 3.577c-7.529 29.403-34.227 43.982-71.444 69.784-13.536 4.366-28.447 6.937-44.447 7.104-44.809 0.482-86.554-17.471-110.108-44.186 7.96-38.853 42.517-68.279 83.617-68.279h143.222c0.908 5.564 1.348 11.316 1.348 17.216 0 6.267-0.767 12.396-2.188 18.361z" />
<glyph unicode="&#xe03e;" d="M426.672 480h-341.33c-46.936 0-85.342-38.407-85.342-85.344v-341.313c0-46.969 38.406-85.343 85.342-85.343l341.33 0.001c46.938 0 85.328 38.373 85.328 85.344v341.311c0 46.937-38.391 85.344-85.328 85.344zM435.296 224h-83.296v-224h-96v224h-46.263v73.282h46.263v47.593c0 64.671 27.896 103.125 103.935 103.125h87.622v-79.285h-71.565c-21.241 0.035-23.876-11.076-23.876-31.756l-0.116-39.677h96l-12.704-73.282z" />
<glyph unicode="&#xe03f;" d="M395.749 207.954c-0.647 64.841 52.879 95.938 55.271 97.483-30.076 44.010-76.925 50.039-93.621 50.736-39.871 4.037-77.798-23.474-98.033-23.474-20.184 0-51.409 22.877-84.476 22.276-43.458-0.646-83.529-25.269-105.906-64.19-45.152-78.349-11.563-194.42 32.445-257.963 21.504-31.102 47.146-66.038 80.813-64.79 32.421 1.294 44.681 20.979 83.878 20.979s50.214-20.979 84.525-20.335c34.887 0.648 56.991 31.699 78.346 62.898 24.695 36.084 34.863 71.019 35.462 72.813-0.774 0.353-68.030 26.118-68.704 103.567zM331.281 398.239c17.869 21.679 29.93 51.756 26.64 81.761-25.739-1.048-56.939-17.145-75.405-38.775-16.571-19.188-31.074-49.813-27.187-79.218 28.733-2.242 58.064 14.602 75.952 36.232z" />
<glyph unicode="&#xe040;" d="M432 320c-17.6 0-32-14.4-32-32v-128c0-17.6 14.4-32 32-32s32 14.4 32 32v128c0 17.6-14.4 32-32 32zM48 320c-17.6 0-32-14.4-32-32v-128c0-17.6 14.4-32 32-32s32 14.4 32 32v128c0 17.6-14.401 32-32 32zM96 112c0-26.51 21.49-48 48-48h16v-64c0-17.6 14.4-32 32-32s32 14.4 32 32v64h32v-64c0-17.6 14.401-32 32-32s32 14.4 32 32v64h16c26.51 0 48 21.49 48 48v176h-288v-176zM299.299 435.253l20.252 38.903c1.016 1.951 0.25 4.379-1.701 5.395s-4.379 0.25-5.395-1.701l-20.559-39.493c-16.099 6.224-33.597 9.643-51.896 9.643-18.298 0-35.796-3.419-51.898-9.643l-20.558 39.492c-1.016 1.951-3.443 2.717-5.395 1.701s-2.717-3.443-1.701-5.395l20.25-38.904c-45.315-20.509-78.12-63.792-83.81-115.252h286.22c-5.688 51.462-38.493 94.744-83.809 115.254zM176 344.8c-12.813 0-23.2 10.387-23.2 23.2s10.387 23.2 23.2 23.2 23.2-10.387 23.2-23.2c-0.001-12.813-10.387-23.2-23.2-23.2zM304 344.8c-12.813 0-23.201 10.387-23.201 23.2s10.389 23.2 23.201 23.2 23.199-10.387 23.199-23.2c0-12.813-10.386-23.2-23.199-23.2z" />
<glyph unicode="&#xe041;" d="M206.115 224.043c-23.854 12.259-47.043 18.479-68.94 18.479-2.978 0-5.976-0.090-8.974-0.354-27.94-2.312-53.461-9.684-69.875-15.414-4.354-1.599-8.817-3.288-13.415-5.153l-44.911-155.697c30.851 11.416 58.146 16.969 83.135 16.969 40.423 0 69.764-15.104 93.996-30.652 11.481 38.959 39.022 133.045 47.241 161.162-5.975 3.642-12.038 7.285-18.257 10.66zM264.174 184.465l-45.223-157.074c13.416-7.686 58.549-32.025 93.106-32.025 27.896 0 59.126 7.148 95.417 21.896l43.178 150.988c-29.316-9.461-57.438-14.26-83.732-14.26-47.975 0-81.557 15.549-102.746 30.475zM146.411 295.605c38.559-0.399 67.076-15.104 90.708-30.251l46.376 158.672c-9.773 5.598-35.403 19.547-53.929 24.3-12.193 2.842-25.010 4.308-38.602 4.308-25.898-0.488-54.194-6.973-86.444-19.9l-44.22-155.298c32.404 12.218 60.322 18.17 86.043 18.17 0.023-0.001 0.068-0.001 0.068-0.001zM512 380.938c-29.407-11.416-58.104-17.233-85.514-17.233-45.843 0-79.646 15.901-101.547 31.183l-45.975-159.118c30.873-19.854 64.145-29.939 99.061-29.939 28.474 0 57.97 6.84 87.731 20.344l-0.091 1.111 1.867 0.443 44.468 153.209z" />
<glyph unicode="&#xe042;" d="M426 480h-340c-47.3 0-86-38.7-86-86v-340c0-47.3 38.7-86 86-86h340c47.3 0 86 38.7 86 86v340c0 47.3-38.7 86-86 86zM192 64h-64v224h64v-224zM160 320c-17.673 0-32 14.327-32 32s14.327 32 32 32 32-14.327 32-32-14.327-32-32-32zM416 64h-64v128c0 17.673-14.327 32-32 32s-32-14.327-32-32v-128h-64v224h64v-39.736c13.199 18.132 33.376 39.736 56 39.736 39.765 0 72-35.817 72-80v-144z" />
<glyph unicode="&#xe043;" d="M440.317 414.613c12.849-6.288 24.047-15.243 32.251-26.241 17.268-23.15 22.118-54.686 14.418-93.733-7.78-39.513-25.208-72.867-50.583-97.022-4.641-4.851-9.611-9.373-14.902-13.54-27.178-21.401-61.499-32.714-99.254-32.714h-120.030l-32.282-151.363h-66.212l5.043 23.15h23.064l32.282 151.363h94.135c90.125 0 165.469 55.539 185.629 149.968 22.861 106.917-53.799 155.519-119.705 155.519h-224.639l-99.532-456.85h76.016l-12.016-55.15h131.83l32.282 151.363h94.135c90.125 0 165.469 55.539 185.629 149.968 16.858 78.84-20.402 125.966-67.559 145.282zM211.172 386.959h64.566c32.296 0 53.801-27.769 44.393-62.478-8.068-34.72-41.693-62.488-75.32-62.488h-61.879l28.24 124.966z" />
<glyph unicode="&#xe629;" d="M373.428 213.143l6.572 62.572h-56.572v31.143q0 14 4.428 19.572t20.428 5.572h31.428v62.572h-50q-43.428 0-62.286-20.572t-18.857-60.857v-37.428h-37.429v-62.572h37.428v-181.429h74.857v181.428h50zM438.857 356.572v-274.286q0-34-24.143-58.143t-58.143-24.143h-274.286q-34 0-58.143 24.143t-24.143 58.143v274.286q0 34 24.143 58.143t58.143 24.143h274.286q34 0 58.143-24.143t24.143-58.143z" horiz-adv-x="439" />
<glyph unicode="&#xe62f;" d="M67.715 71.429h66v198.286h-66v-198.286zM138 330.857q-0.286 14.857-10.285 24.572t-26.572 9.714-27-9.714-10.428-24.572q0-14.571 10.143-24.428t26.428-9.857h0.285q16.857 0 27.143 9.857t10.285 24.428zM305.143 71.429h66v113.714q0 44-20.857 66.572t-55.143 22.572q-38.857 0-59.714-33.428h0.571v28.857h-66q0.857-18.857 0-198.286h66v110.857q0 10.857 2 16 4.286 10 12.857 17t21.143 7q33.143 0 33.143-44.857v-106zM438.857 356.572v-274.286q0-34-24.143-58.143t-58.143-24.143h-274.286q-34 0-58.143 24.143t-24.143 58.143v274.286q0 34 24.143 58.143t58.143 24.143h274.286q34 0 58.143-24.143t24.143-58.143z" horiz-adv-x="439" />
<glyph unicode="&#xe63f;" d="M193.714 20.286q0-10.857-2.857-20.286h-108.572q-27.143 0-49 16.143t-29.572 42.143q6.857 12.857 19.715 22.143t28.572 14.143 30.572 6.857 30.572 2q9.143 0 14-0.572 1.714-1.143 8.714-6t9.429-6.572 8.857-6.572 9.143-7.286 7.857-7.286 7.571-8.428 6-8.714 5-9.857 2.714-10.286 1.286-11.572zM110 120.572q-66.857-2-110-24.286v123.714q29.428-33.714 78-33.714 9.143 0 20 1.428-6-17.428-6-24.572 0-19.143 18-42.572zM159.429 266.572q0-28.571-12.429-45.857t-40.143-17.286q-14.572 0-27.715 7.428t-22.285 19.286-16 26.714-10.143 29.714-3.285 28.286q0 27.428 14.715 47.143t41.285 19.714q18.857 0 34-11.714t24-29.714 13.428-37.143 4.572-36.571zM438.857 292.572v-210.286q0-34-24.143-58.143t-58.143-24.143h-133.714q11.143 20.857 11.143 44.857 0 18.857-6.286 35t-15.857 26.572-20.572 20.286-20.572 17-15.857 15.572-6.286 17q0 10.286 6.571 19.428t16 17.572 18.714 18.428 15.857 26.572 6.571 37.428-7.572 41.572-21.572 33.857q-1.714 1.714-4 3.143t-3.571 2.143-2.857 2.715-3 4.857h38.572l38.572 18.286h-124.857q-39.428 0-69.857-11t-52.143-38.143q0 36 23.143 60.857t59.143 24.857h274.286q34 0 58.143-24.143t24.143-58.143v-27.428h-73.143v73.143h-36.572v-73.143h-73.143v-36.572h73.143v-73.143h36.572v73.143h73.143z" horiz-adv-x="439" />
<glyph unicode="&#xe662;" d="M547.715 326.857q6.572-18.285-42.857-84-6.857-9.143-18.572-24.285-22.286-28.572-25.714-37.428-4.857-11.714 4-23.143 4.857-6 23.143-23.428h0.286l1.143-1.143q40.285-37.428 54.572-63.143 0.857-1.428 1.857-3.572t2-7.572-0.143-9.714-7.143-7.857-16.857-3.572l-73.143-1.143q-6.857-1.428-16 1.428t-14.857 6.286l-5.714 3.428q-8.572 6-20 18.286t-19.572 22.143-17.428 16.572-16.143 4.428q-0.857-0.286-2.286-1t-4.857-4.143-6.143-8.428-4.857-14.857-1.857-22.143q0-4.286-1-7.857t-2.143-5.286l-1.143-1.428q-5.143-5.428-15.143-6.286h-32.857q-20.286-1.143-41.714 4.714t-37.572 15.143-29.428 18.857-20.143 16.428l-7.143 6.857q-2.857 2.857-7.857 8.572t-20.428 26-30.285 43.143-35 60.286-37.285 77.714q-1.714 4.572-1.714 7.714t0.857 4.572l1.143 1.714q4.285 5.428 16.285 5.428l78.285 0.571q3.428-0.571 6.572-1.857t4.572-2.429l1.428-0.857q4.572-3.143 6.857-9.143 5.715-14.286 13.143-29.571t11.714-23.286l4.572-8.286q8.286-17.143 16-29.714t13.857-19.572 11.857-11 9.714-4 7.714 1.428q0.571 0.286 1.429 1.428t3.429 6.286 3.857 13.428 2.714 23.143 0 35.715q-0.571 11.428-2.571 20.857t-4 13.143l-1.714 3.428q-7.143 9.714-24.286 12.286-3.714 0.572 1.429 6.857 4.857 5.428 10.857 8.572 15.143 7.428 68.286 6.857 23.428-0.285 38.572-3.714 5.714-1.428 9.572-3.857t5.857-6.857 3-9.143 1-13-0.286-15.714-0.714-20.143-0.428-23.571q0-3.143-0.286-12t-0.143-13.714 1-11.572 3.286-11.143 6.428-7q2.286-0.572 4.857-1.143t7.428 3.143 10.857 9.857 14.857 19.143 19.428 30.715q17.143 29.714 30.572 64.286 1.143 2.857 2.857 5t3.143 3l1.143 0.857 1.428 0.714t3.714 0.857 5.714 0.143l82.286 0.572q11.143 1.428 18.285-0.714t8.857-4.714z" horiz-adv-x="549" />
<glyph unicode="&#xe663;" d="M398 128.286q-11.143-35.714-35.143-71.428-36.857-56-73.428-56-14 0-40 9.143-24.572 9.143-43.143 9.143-17.429 0-40.571-9.428-23.143-9.714-37.715-9.714-43.428 0-86 74-42 74.572-42 143.714 0 65.143 32.285 106.857 32 41.143 81.143 41.143 20.572 0 50.572-8.572 29.714-8.572 39.428-8.572 12.857 0 40.857 9.715 29.143 9.714 49.429 9.714 34 0 60.857-18.572 14.857-10.286 29.714-28.572-22.572-19.143-32.572-33.714-18.572-26.857-18.572-59.143 0-35.428 19.714-63.714t45.143-36zM290.572 463.429q0-17.428-8.286-38.857-8.572-21.428-26.572-39.428-15.428-15.428-30.857-20.572-10.571-3.143-29.715-4.857 0.857 42.571 22.286 73.428 21.143 30.572 71.428 42.286 0.286-0.857 0.714-3.143t0.714-3.143q0-1.143 0.143-2.857t0.143-2.857z" horiz-adv-x="403" />
<glyph unicode="&#xe664;" d="M194.857 188v-186l-194.857 26.857v159.143h194.857zM194.857 400.286v-188.285h-194.857v161.428zM475.428 188v-224.572l-259.143 35.714v188.857h259.143zM475.428 438.857v-226.857h-259.143v191.143z" horiz-adv-x="476" />
<glyph unicode="&#xe665;" d="M140.857 337.429q4.571 0 7.857 3.286t3.286 7.857-3.286 7.857-7.857 3.285-7.714-3.285-3.143-7.857 3.143-7.857 7.714-3.286zM261.428 337.429q4.572 0 7.714 3.286t3.143 7.857-3.143 7.857-7.714 3.285-7.857-3.285-3.286-7.857 3.286-7.857 7.857-3.286zM29.428 284.857q12 0 20.572-8.571t8.572-20.572v-122.857q0-12.286-8.428-20.857t-20.715-8.572-20.857 8.572-8.572 20.857v122.857q0 12 8.572 20.572t20.857 8.572zM332.286 279.429v-190.286q0-13.143-9.143-22.286t-22-9.143h-21.428v-64.857q0-12.286-8.572-20.857t-20.857-8.572-20.857 8.572-8.572 20.857v64.857h-39.428v-64.857q0-12.286-8.572-20.857t-20.857-8.572q-12 0-20.571 8.572t-8.572 20.857l-0.285 64.857h-21.143q-13.143 0-22.285 9.143t-9.143 22.286v190.286h262.286zM266 395.143q30.572-15.714 48.857-43.857t18.286-61.571h-264.286q0 33.428 18.285 61.571t49.143 43.857l-20.285 37.428q-2 3.714 1.428 5.714 3.715 1.715 5.715-1.714l20.572-37.714q27.143 12 57.429 12t57.428-12l20.572 37.714q2 3.429 5.714 1.714 3.428-2 1.428-5.714zM402.286 255.714v-122.857q0-12.286-8.572-20.857t-20.857-8.572q-12 0-20.572 8.572t-8.572 20.857v122.857q0 12.286 8.572 20.715t20.572 8.428q12.286 0 20.857-8.428t8.572-20.714z" horiz-adv-x="403" />
<glyph unicode="&#xe681;" d="M964.7 194.396c-29.599-48.2-67.528-100.849-121.789-119.608-54.722-18.928-4.772 94.74 11.31 154.972 99.221 0 76.16 67.783 66.099 71.035l-47.621-8.965c6.948 23.214 4.782 33.643 2.832 39.746-7.859 25.411-45.84 61.501-116.132 7.567 1.659-10.644 2.98-28.027 1.659-39.081-25.39 22-95.928 64.179-126.111 82.238-68.158 40.678-144.24 68.603-256.292 29.675l-0.875 7.096c27.991 20.705 73.39 38.969 143.518 29.235-44.022 19.246-79.79 33.029-148.439 27.735-45.798-3.492-98.57-38.492-105.349-93.793-5.601-45.609 31.591-84.849 65.561-72.32 52.521 19.471 87.209 46.961 158.562 44.309 99.272-3.666 175.708-49.935 262.298-109.123 0 0-9.462-32.425-15.708-44.903-6.129-12.529-45.399-99.522-100.7-121.201-17.331-6.83-27.961-3.502-13.501 56.75 7.997 33.341 26.491 69.202 38.042 97.863-12.4 22.19-32.538 40.761-57.482 40.761-43.059 0-56.72-20.019-56.72-20.019-31.038 28.698-57.728 41.616-91.111 41.616-106.132 0-133.76-126.085-137.692-159.826-0.051-0.65-0.128-1.28-0.231-1.95-35.589-56.428-189.901-144.389-200.11-26.491 160.671-78.858 239.959 183.936 65.28 188.267-87.465 2.181-137.405-65.7-157.639-114.749-42.773-103.649-10.281-209.715 98.294-209.715 91.592 0 172.119 69.182 197.581 93.543 8.632-45.988 31.841-93.543 86.421-93.543 0 0 61.378 0 94.49 74.481 0-35.978 17.28-74.481 68.859-74.481 49.817 0 111.488 68.51 141.082 105.421-4.101-56.668 6.999-105.421 55.629-105.421 46.372 0 119.521 51.901 164.27 104.75 37.939 44.841 64.231 106.67 64.231 115.722 0 13.527-25.375 13.957-32.512 2.406zM184.899 232.581c27.888-0.251 18.279-96.569-62.080-80.005 1.081 12.298 26.87 80.302 62.080 80.005zM456.75 63.703c-34.698 0-28.769 56.351-17.792 90.020 10.777 33.091 37.351 60.903 60.18 60.201 20.828-0.579 22.078-16.461 22.108-27.812 0.271-48.697-32.865-122.409-64.496-122.409z" horiz-adv-x="1003" />
<glyph unicode="&#xe682;" d="M483.492 467.651c0 0-55.327-56.499-218.685-10.732-282.122 79.114-293.918-96.788-213.98-137.692 0 0 45.281 61.189 174.561 38.067-23.859-62.039-170.553-360.315-32.077-384.773 35.041-6.18 55.25 9.149 55.25 9.149 4.976 123.781 31.14 234.982 76.908 360.12 147.727-40.786 234.107 31.872 158.024 125.86zM856.934 268.078l-38.666-3.313c3.251 13.404 8.955 27.336 9.032 55.547 0.302 37.227-52.849 80.062-148.388-1.086 0 0 9.078-20.321 9.078-51.799-64.389-3.425-31.14-57.815-31.14-57.815 9.154 3.958 28.063 4.429 27.812 3.512-3.574-12.462-8.775-30.469-13.655-51.129-12.508-13.332-31.708-27.858-55.818-32.041 7.577 56.647-3.737 115.763-39.076 141.113-51.574 36.992-76.262-12.257-76.262-12.257-18.596 22.887-52.055 35.415-67.779 35.415-103.747 0-124.944-138.701-125.353-152.284-6.041-177.628 129.305-170.982 138.522-170.982 61.532 0 126.633 47.002 152.115 102.471 25.861 1.351 47.283 9.308 60.846 15.831-6.032-60.979 3.303-118.451 61.327-118.451 53.724 0 117.177 58.567 128.128 69.11 2.452 2.299 5.775 5.499 9.457 9.2-4.905 19.461-6.528 40.668-4.7 62.827-5.755-5.058-10.778-9.231-13.706-11.479-11.582-8.612-29.486-20.889-44.995-26.44-54.502-19.579-8.33 72.981 7.798 133.181 80.712-3.349 55.424 60.866 55.424 60.866zM453.151 61.584c-44.119-0.952-35.543 67.272-32.65 81.331 12.206 58.777 53.524 77.589 65.68 78.561-2.186-15.462-8.418-60.728 13.481-98.57 2.739-26.86-22.564-60.8-46.51-61.322z" horiz-adv-x="867" />
<glyph unicode="&#xe683;" d="M392.458 170.476c-38.594 1.28-50.048-18.898-62.305-45.972-26.435-58.25-58.624-87.409-115.676-95.591-60.303-8.699-133.77 26.46-180.106 79.257-0.251 0.179 0.2-1.802 0-1.598 12.631-21.939 69.453-118.201 187.305-133.227 93.214-11.909 133.868 30.51 168.699 110.372l6.226 0.43c1.101-38.599-12.631-71.511-38.17-93.148 19.486 8.361 37.806 19.062 54.462 31.841 34.688 30.238 44.871 65.828 31.949 105.278-8.402 25.825-29.686 41.605-52.382 42.358zM2419.635 194.396c-29.599-48.2-67.528-100.849-121.789-119.608-54.722-18.928-4.772 94.74 11.31 154.972 99.22 0 76.16 67.783 66.099 71.035l-47.621-8.965c6.948 23.214 4.782 33.643 2.831 39.746-7.859 25.411-45.84 61.501-116.132 7.567 1.659-10.644 2.98-28.027 1.659-39.081-25.39 22-95.928 64.179-126.11 82.238-68.158 40.678-144.24 68.603-256.292 29.675l-0.88 7.101c27.991 20.706 73.39 38.969 143.518 29.235-44.022 19.246-79.79 33.029-148.439 27.735-45.799-3.492-98.57-38.492-105.349-93.793-5.601-45.609 31.591-84.849 65.562-72.32 52.521 19.471 87.209 46.961 158.562 44.309 99.272-3.666 175.708-49.935 262.298-109.123 0 0-9.462-32.425-15.708-44.903-6.128-12.529-45.399-99.522-100.7-121.201-17.331-6.83-27.961-3.502-13.501 56.75 7.997 33.341 26.491 69.202 38.041 97.863-12.401 22.19-32.537 40.761-57.482 40.761-43.059 0-56.719-20.019-56.719-20.019-31.037 28.698-57.728 41.616-91.111 41.616-106.132 0-133.76-126.085-137.692-159.826-0.051-0.65-0.128-1.28-0.23-1.95-35.589-56.428-189.901-144.389-200.11-26.491 160.67-78.858 239.959 183.936 65.28 188.267-87.47 2.176-137.41-65.71-157.645-114.754-42.773-103.649-10.281-209.72 98.294-209.72 91.591 0 172.119 69.182 197.581 93.543 8.632-45.988 31.841-93.543 86.42-93.543 0 0 61.379 0 94.489 74.481 0-35.978 17.28-74.481 68.859-74.481 49.817 0 111.488 68.51 141.082 105.421-4.101-56.668 6.999-105.421 55.629-105.421 46.372 0 119.521 51.901 164.27 104.75 37.939 44.841 64.231 106.67 64.231 115.722 0.010 13.532-25.365 13.962-32.502 2.411zM1639.833 232.581c27.889-0.251 18.278-96.569-62.080-80.005 1.081 12.298 26.87 80.302 62.080 80.005zM1911.685 63.703c-34.698 0-28.77 56.351-17.792 90.020 10.777 33.091 37.351 60.903 60.18 60.201 20.828-0.579 22.078-16.461 22.108-27.812 0.272-48.697-32.866-122.409-64.496-122.409zM511.524 223.329c0 139.766-113.751 253.507-253.563 253.507-139.771 0-257.152-113.301-252.359-253.010 1.075-32.159 14.080-63.329 24.525-83.159 11.259-21.33 83.502-103.751 181.207-89.989 41.457 5.878 67.093 23.808 89.042 63.55-13.097-5.099-27.377-8.1-42.409-8.1-64.589 0-117.125 52.551-117.125 117.202 0 64.594 52.536 117.146 117.125 117.146 64.604 0 117.192-52.552 117.192-117.146 0-10.281-1.377-21.632-5.279-32.615 5.801 1.152 12.206 1.849 19.282 1.849 1.275 0 2.601-0.031 3.968-0.082 33.152-1.070 61.614-23.608 72.704-57.498 5.478-16.952 7.454-33.408 5.929-49.152 24.377 38.103 39.762 91.505 39.762 137.498zM1071.431 467.651c0 0-55.327-56.499-218.686-10.732-282.122 79.114-293.913-96.793-213.98-137.697 0 0 45.282 61.189 174.562 38.067-23.859-62.039-170.553-360.315-32.077-384.773 35.042-6.18 55.25 9.149 55.25 9.149 4.976 123.781 31.14 234.982 76.908 360.12 147.727-40.781 234.107 31.877 158.024 125.865zM1444.874 268.078l-38.666-3.313c3.251 13.404 8.955 27.336 9.032 55.547 0.302 37.227-52.849 80.062-148.388-1.086 0 0 9.078-20.321 9.078-51.799-64.389-3.425-31.14-57.815-31.14-57.815 9.155 3.958 28.063 4.429 27.812 3.512-3.574-12.462-8.775-30.469-13.655-51.129-12.508-13.332-31.708-27.858-55.818-32.041 7.578 56.647-3.737 115.763-39.076 141.113-51.574 36.992-76.263-12.257-76.263-12.257-18.596 22.887-52.055 35.415-67.779 35.415-103.746 0-124.943-138.701-125.353-152.284-6.042-177.628 129.305-170.982 138.522-170.982 61.532 0 126.633 47.002 152.115 102.471 25.861 1.351 47.283 9.308 60.846 15.831-6.032-60.979 3.303-118.451 61.328-118.451 53.724 0 117.177 58.567 128.128 69.11 2.453 2.299 5.775 5.499 9.457 9.2-4.905 19.461-6.528 40.668-4.7 62.827-5.755-5.058-10.777-9.231-13.706-11.479-11.582-8.612-29.486-20.889-44.995-26.44-54.503-19.579-8.33 72.981 7.798 133.181 80.712-3.349 55.424 60.866 55.424 60.866zM1041.091 61.584c-44.119-0.952-35.543 67.272-32.65 81.331 12.206 58.777 53.525 77.589 65.68 78.561-2.186-15.462-8.418-60.728 13.481-98.57 2.739-26.86-22.564-60.8-46.51-61.322z" horiz-adv-x="2458" />
<glyph unicode="&#xe684;" d="M389.529 177.408c-37.699 1.244-48.891-18.755-60.877-45.578-25.769-57.738-57.231-86.605-112.942-94.761-58.911-8.622-130.631 26.24-175.893 78.577-0.2 0.185 0.184-1.776 0-1.572 12.365-21.735 67.865-117.171 182.912-132.065 91.059-11.791 130.791 30.213 164.782 109.378l6.067 0.461c1.091-38.272-12.298-70.938-37.289-92.329 19.062 8.269 36.93 18.898 53.212 31.56 33.899 29.973 43.807 65.219 31.196 104.32-8.228 25.579-29.026 41.272-51.169 42.010z" />
<glyph unicode="&#xe685;" d="M505.8 222.991c0 138.563-111.068 251.274-247.567 251.274-136.525 0-251.146-112.286-246.507-250.768 1.070-31.892 13.758-62.72 23.962-82.396 10.992-21.151 81.561-102.851 176.978-89.2 40.519 5.801 65.551 23.613 86.974 62.986-12.872-5.11-26.788-8.007-41.406-8.007-63.089 0-114.422 52.065-114.422 116.117 0 64.046 51.328 116.126 114.422 116.126 63.063 0 114.396-52.080 114.396-116.126 0-10.158-1.341-21.458-5.151-32.307 5.688 1.147 11.863 1.833 18.8 1.833 1.27 0 2.58-0.021 3.932-0.082 32.292-1.039 60.13-23.388 70.938-57.001 5.422-16.778 7.281-33.080 5.806-48.712 23.839 37.776 38.846 90.711 38.846 136.263z" />
<glyph unicode="&#xe686;" d="M389.529 177.408c-37.699 1.244-48.891-18.755-60.877-45.578-25.769-57.738-57.231-86.605-112.942-94.761-58.911-8.622-130.631 26.24-175.893 78.577-0.2 0.185 0.184-1.776 0-1.572 12.365-21.735 67.865-117.171 182.912-132.065 91.059-11.791 130.791 30.213 164.782 109.378l6.067 0.461c1.091-38.272-12.298-70.938-37.289-92.329 19.062 8.269 36.93 18.898 53.212 31.56 33.899 29.973 43.807 65.219 31.196 104.32-8.228 25.579-29.026 41.272-51.169 42.010zM505.8 222.991c0 138.563-111.068 251.274-247.567 251.274-136.525 0-251.146-112.286-246.507-250.768 1.070-31.892 13.758-62.72 23.962-82.396 10.992-21.151 81.561-102.851 176.978-89.2 40.519 5.801 65.551 23.613 86.974 62.986-12.872-5.11-26.788-8.007-41.406-8.007-63.089 0-114.422 52.065-114.422 116.117 0 64.046 51.328 116.126 114.422 116.126 63.063 0 114.396-52.080 114.396-116.126 0-10.158-1.341-21.458-5.151-32.307 5.688 1.147 11.863 1.833 18.8 1.833 1.27 0 2.58-0.021 3.932-0.082 32.292-1.039 60.13-23.388 70.938-57.001 5.422-16.778 7.281-33.080 5.806-48.712 23.839 37.776 38.846 90.711 38.846 136.263z" />
<glyph unicode="&#xe68e;" d="M256 19.2c-82.304 0-154.322 28.13-154.322 62.853 0 28.278 47.815 52.188 110.039 60.078v46.131c14.69-0.921 29.486-1.382 44.283-1.382s29.594 0.461 44.298 1.387v-46.131c62.228-7.89 110.024-31.8 110.024-60.083 0-34.724-72.002-62.853-154.322-62.853zM256 234.732c-136.54 0-256 43.443-256 97.044 0 53.575 119.46 97.024 256 97.024s256-43.449 256-97.024c0-53.596-119.46-97.044-256-97.044z" />
<glyph unicode="&#xe68f;" d="M367.237 479.314c-50.734 0-75.362-77.415-75.362-236.616 0-27.587 19.251-51.635 44.718-59.085v-176.482c0.062-21.57 17.567-39.138 39.014-39.138 10.455 0 20.275 4.111 27.668 11.515 7.327 7.383 11.382 17.234 11.382 27.699l0.062 410.594c0 22.948-6.185 61.512-47.483 61.512zM226.837 479.974c-10.137-0.476-18.023-9.707-17.602-20.659l2.432-81.28c0 0-0.604-7.711-8.832-7.711-7.644 0-9.006 7.711-9.006 7.711h-0.061l-0.573 82.698c0 10.317-8.371 18.678-18.662 18.678-10.281 0-18.626-8.366-18.626-18.678l-0.573-82.698h-0.025c0 0-1.408-7.711-9.042-7.711-8.222 0-8.837 7.69-8.837 7.69l2.437 81.3c0.461 10.952-7.47 20.183-17.597 20.659-10.583 0.538-18.713-8.023-19.133-18.939l-5.852-103.618c0-30.915 17.505-57.314 42.895-70.067l-4.464-280.064c0-10.384 3.994-20.183 11.351-27.536 7.337-7.383 17.106-11.464 27.51-11.464 21.392 0 38.758 17.5 38.83 38.933l-4.459 280.135c25.39 12.749 42.885 39.147 42.885 70.067l-5.857 103.613c-0.425 10.916-8.555 19.481-19.133 18.939z" />
<glyph unicode="&#xe690;" d="M111.007 413.45c-12.979 12.979-33.981 29.445-56.96 29.445-12.36 0-25.252-4.746-37.822-17.326-44.17-44.242 1.659-133.095 139.929-271.637 14.5-14.49 33.951-21.74 53.433-21.74 12.749 0 25.493 3.103 36.839 9.334l153.308-153.575c9.401-9.37 21.729-14.044 34.048-14.044 12.278 0 24.56 4.664 33.899 13.998 9.098 9.129 14.090 21.264 14.070 34.156-0.041 12.805-5.058 24.914-14.151 34.028l-356.592 357.361zM504.848 381.645c-9.211 8.428-24.11 7.291-33.26-2.621l-68.48-72.858c0 0-7.24-6.17-14.397 1.003-6.64 6.672-1.132 14.572-1.132 14.572l-0.062 0.046 71.347 72.453c8.95 8.986 8.93 23.572-0.041 32.527-8.93 8.97-23.46 8.97-32.43 0l-72.351-71.45c0 0-7.931-5.483-14.572 1.198-7.158 7.143-0.998 14.367-0.998 14.367l72.73 68.628c9.923 9.149 11.029 24.074 2.622 33.331-8.74 9.702-23.25 9.334-33.101 0.205l-95.109-85.069c-23.147-23.183-31.99-54.789-26.942-84.352l77.261-77.415c29.502-5.038 61.051 3.82 84.209 26.993l84.921 95.268c9.104 9.882 9.472 24.438-0.215 33.173zM120.254 151.993l-105.339-102.205c-9.011-9.026-14.029-21.043-14.029-33.869-0.020-12.81 4.931-24.873 13.988-33.966 18.622-18.647 48.932-18.56 67.62 0.021l119.49 123.597c-24.709 1.751-47.518 11.925-64.86 29.286-5.816 5.817-11.376 11.505-16.87 17.137z" />
<glyph unicode="&#xe691;" d="M462.679 90.378c-0.635 75.433-20.664 89.994-41.108 98.452-10.599 4.382-26.624 8.914-43.038 13.322l-106.286-184.791c-8.924-15.529-23.547-15.529-32.476 0l-105.651 183.659c-17.495-5.033-34.857-10.255-46.183-15.145-19.287-8.428-39.916-23.726-39.281-99.097l0.697-79.678c27.894-11.51 107.515-39.962 207.39-39.081 100.163 0.875 179.067 30.715 206.613 42.66l-0.676 79.698zM289.31 204.15l-29.875-21.233c-1.305-0.594-2.325-1.28-3.43-1.935-1.116 0.656-2.125 1.341-3.435 1.935l-29.875 21.233c-17.602 10.194-32.016 1.853-32.016-18.55v-34.632c0-20.403 14.418-28.749 32.016-18.55l29.875 21.228c1.31 0.599 2.32 1.285 3.435 1.93 1.111-0.645 2.125-1.331 3.43-1.93l29.875-21.228c17.603-10.199 32.021-1.853 32.021 18.55v34.632c0 20.403-14.418 28.743-32.020 18.55zM257.101 219.566c0.24 0 0.476 0 0.702 0 56.647 0.681 109.020 85.796 108.293 151.234-0.697 60.483-49.961 109.2-110.024 109.2-0.507 0-0.906 0-1.341 0-60.682-0.681-109.527-50.847-108.82-111.78 0.814-65.152 54.697-148.654 111.191-148.654z" />
<glyph unicode="&#xe692;" d="M256 161.173c40.156 0 72.704 32.702 72.704 73.052v172.723c0 40.351-32.548 73.052-72.704 73.052-40.161 0-72.704-32.702-72.704-73.052v-172.723c0-40.351 32.542-73.052 72.704-73.052zM398.172 344.94c-13.384 0-24.233-10.901-24.233-24.351v-86.364c0-65.347-52.9-118.498-117.934-118.498s-117.939 53.151-117.939 118.498v86.364c0 13.45-10.85 24.351-24.233 24.351-13.379 0-24.228-10.9-24.228-24.351v-86.364c0-83.911 61.891-153.359 142.167-165.218v-42.567h-61.271c-16.061 0-29.082-13.072-29.082-29.22 0-16.128 13.020-29.22 29.082-29.22h170.998c16.062 0 29.082 13.092 29.082 29.22 0 16.149-13.020 29.22-29.082 29.22h-61.266v42.567c80.297 11.858 142.167 81.305 142.167 165.218v86.364c0 13.45-10.849 24.351-24.228 24.351z" />
<glyph unicode="&#xe693;" d="M329.595 364.565v42.383c0 40.351-32.952 73.052-73.605 73.052-40.642 0-73.605-32.702-73.605-73.052v-172.733c0-4.905 0.512-9.692 1.439-14.326l145.772 144.676zM147.897 184.228c-7.173 15.212-11.3 32.113-11.3 49.987v86.369c0 13.45-10.983 24.351-24.535 24.351-13.547 0-24.53-10.901-24.53-24.351v-86.37c0-31.447 8.806-60.867 24.090-85.986l36.275 35.998zM375.399 234.214c0-65.326-53.565-118.498-119.409-118.498-0.573 0-1.142 0.077-1.715 0.098l-42.809-42.501c6.533-1.772 13.168-3.318 19.988-4.322v-42.558h-62.013c-1.987 0-3.922-0.21-5.801-0.589l-23.060-22.876c-0.369-1.863-0.583-3.784-0.583-5.755 0-16.149 13.179-29.22 29.445-29.22h173.113c16.261 0 29.44 13.072 29.44 29.22 0 16.128-13.179 29.22-29.44 29.22h-62.029v42.558c81.29 11.853 143.939 81.326 143.939 165.222v50.499l-49.065-48.691v-1.808zM461.507 408.478c-6.359 6.308-14.69 9.457-23.014 9.457-8.33 0-16.661-3.149-23.004-9.457l-364.995-362.235c-12.708-12.615-12.708-33.065 0-45.675 6.359-6.318 14.679-9.467 23.010-9.467s16.671 3.144 23.010 9.467l364.99 362.224c12.713 12.626 12.713 33.065 0.005 45.686z" />
<glyph unicode="&#xe694;" d="M428.339 106.608c-18.294-9.154-37.781-13.793-57.923-13.793-71.998 0-130.54 58.844-130.54 131.185s58.547 131.185 130.54 131.185c20.147 0 39.629-4.638 57.923-13.793 5.366-2.693 11.577-3.661 16.773-3.85 20.004 0.154 36.163 16.486 36.163 36.623 0 11.095-4.905 21.038-12.672 27.766-47.81 49.664-114.35 78.070-183.091 78.070-140.488 0-254.792-114.841-254.792-256s114.304-256 254.792-256c70 0 137.656 29.435 185.641 80.763 12.099 12.923 13.214 32.707 2.678 46.925-10.537 14.238-29.716 18.826-45.491 10.921z" />
<glyph unicode="&#xe695;" d="M189.982 362.88h-42.578c-20.782 0-37.781-16.988-37.781-37.806v-42.558c0-20.782 16.998-37.791 37.781-37.791h42.578c20.772 0 37.78 17.009 37.78 37.791v42.558c0 20.818-17.008 37.806-37.781 37.806zM189.982 194.811h-42.578c-20.782 0-37.781-16.988-37.781-37.811v-42.553c0-20.782 16.998-37.791 37.781-37.791h42.578c20.772 0 37.78 17.009 37.78 37.791v42.553c0 20.818-17.008 37.811-37.781 37.811zM364.595 194.811h-42.567c-20.782 0-37.791-16.988-37.791-37.811v-42.553c0-20.782 17.009-37.791 37.791-37.791h42.567c20.782 0 37.791 17.009 37.791 37.791v42.553c0 20.818-17.009 37.811-37.791 37.811zM403.328 480h-294.646c-59.934 0-108.682-48.758-108.682-108.682v-294.64c0-59.935 48.748-108.677 108.682-108.677h294.651c59.925 0 108.667 48.743 108.667 108.682v294.635c0 59.925-48.743 108.682-108.672 108.682zM464.758 76.682c0-33.889-27.55-61.44-61.43-61.44h-294.646c-33.879 0-61.44 27.55-61.44 61.44v294.635c0 33.869 27.561 61.44 61.44 61.44h294.651c33.879 0 61.43-27.571 61.43-61.44v-294.635zM364.595 362.88h-42.567c-20.782 0-37.791-16.988-37.791-37.806v-42.558c0-20.782 17.009-37.791 37.791-37.791h42.567c20.782 0 37.791 17.009 37.791 37.791v42.558c0 20.818-17.009 37.806-37.791 37.806z" />
<glyph unicode="&#xe696;" d="M256 480c-141.159 0-256-114.877-256-256 0-141.204 114.841-256 256-256s256 114.796 256 256c0 141.123-114.841 256-256 256zM176.65 21.77c-80.665 31.841-138.046 110.366-138.046 202.23 0 22.4 3.456 44.042 9.774 64.414l60.493-71.803c-19.574-45.266 5.474-71.363 26.343-92.779 22.512-23.091 45.383-47.293 41.436-102.062zM473.395 224c0-119.849-97.546-217.395-217.395-217.395-12.4 0-24.469 1.296-36.316 3.257 89.841 112.834 66.75 170.988 56.53 196.26l-1.894 4.9c-9.682 29.276-73.923 41.948-104.53 41.948-14.403 0-26.071-2.427-35.446-6.636l-17.168 20.352c38.984 12.534 105.257 39.229 108.052 76.411 0.645 8.75-2.34 16.676-8.371 22.252-12.672 11.843-32.712 8.827-57.933 5.053-37.273-5.575-54.313-5.202-61.051 2.258 39.675 42.168 95.785 68.726 158.126 68.726 32.215 0 62.674-7.25 90.214-19.84-21.351-10.947-43.632-30.183-51.476-64.645-2.606-11.387-5.058-28.13 3.687-41.636 8.606-13.271 23.004-16.144 33.541-18.258 13.942-2.852 18.058-4.142 20.577-15.227 6.789-31.529-2.893-57.467-10.665-78.372-7.659-20.439-18.145-48.497 8.704-63.591 4.275-2.334 9.063-3.604 14.228-3.604 28.432 0 73.538 49.096 108.313 93 0.026-1.741 0.272-3.476 0.272-5.212z" />
<glyph unicode="&#xe697;" d="M461.747 153.564c-31.555 12.647-66.294 3.589-88.141-19.927l-211.174 84.25c0.082 1.787 0 3.486 0 5.294l208.871 89.707c22.364-22.942 57.395-31.084 88.606-17.654 40.443 17.372 59.234 64.353 41.882 104.776-17.485 40.525-64.404 59.305-104.93 41.876-31.14-13.424-49.362-44.324-48.185-76.432l-208.86-89.718c-7.854 8.095-17.331 14.7-28.452 19.174-41.728 16.625-88.939-3.655-105.549-45.389-16.614-41.651 3.579-88.929 45.276-105.528 32.389-12.877 68.019-3.533 90.066 20.69l211.282-84.245c-0.384-32.036 18.616-62.582 50.192-75.095 40.904-16.389 87.332 3.533 103.629 44.452 16.399 40.95-3.533 87.47-44.514 103.767z" />
<glyph unicode="&#xe698;" d="M104.463 180.505c0-25.354-20.521-45.921-45.819-45.921-25.319 0-45.844 20.567-45.844 45.921v230.876c0 25.349 20.526 45.891 45.844 45.891 25.298 0 45.819-20.541 45.819-45.891v-230.876zM453.714 204.467c25.139-0.215 45.486-20.634 45.486-45.865 0-25.354-20.526-45.895-45.844-45.895h-130.284c28.002-23.137 48.65-60.702 48.65-98.811 0-25.354-20.526-45.895-45.839-45.895s-38.917 21.509-45.834 45.895c-12.529 44.094-69.54 87.721-100.101 99.656-18.494 7.24-37.356 22.543-37.356 45.072v255.846c0 24.899 17.602 47.161 42.855 48.88l244.147 16.533c1.039 0.077 2.084 0.118 3.139 0.118 23.906 0 44.037-18.581 45.675-42.798 1.71-25.298-18.78-47.278-44.022-48.999l13.87-0.102c25.308 0 45.819-20.542 45.819-45.891s-17.95-45.891-43.269-45.891v-0.097c25.319 0 48.394-20.567 48.394-45.916 0-25.206-20.347-45.675-45.486-45.839z" />
<glyph unicode="&#xe699;" d="M335.913 293.043h-159.826c-13.558 0-24.555-10.977-24.555-24.514s10.993-24.514 24.555-24.514h159.831c13.558 0 24.555 10.977 24.555 24.514s-10.998 24.514-24.56 24.514zM335.913 203.991h-159.826c-13.558 0-24.555-10.983-24.555-24.519s10.993-24.51 24.555-24.51h159.831c13.558 0 24.555 10.972 24.555 24.51s-10.998 24.519-24.56 24.519zM246.641 114.908h-70.554c-13.558 0-24.555-10.972-24.555-24.51s10.993-24.514 24.555-24.514h70.553c13.558 0 24.555 10.978 24.555 24.514s-10.998 24.51-24.555 24.51zM335.913 382.116h-159.826c-13.558 0-24.555-10.972-24.555-24.514s10.993-24.514 24.555-24.514h159.831c13.558 0 24.555 10.977 24.555 24.514s-10.998 24.514-24.56 24.514zM379.668 480h-247.337c-43.326 0-78.572-35.2-78.572-78.443v-355.108c0-43.264 35.246-78.443 78.572-78.443h247.342c43.336 0 78.572 35.18 78.572 78.443v355.108c-0.005 43.243-35.241 78.444-78.577 78.444zM399.309 46.443c0-10.629-8.996-19.61-19.64-19.61h-247.337c-10.644 0-19.641 8.981-19.641 19.61v355.113c0 10.629 8.996 19.609 19.641 19.609h247.342c10.644 0 19.64-8.981 19.64-19.609v-355.113z" />
<glyph unicode="&#xe69a;" d="M426.348 270.366c0.128 2.253 0.327 4.49 0.327 6.784 0 55.486-44.042 100.45-98.361 100.45-35.41 0-66.361-19.18-83.681-47.862-12.826 12.565-30.203 20.327-49.382 20.327-39.424 0-71.388-32.635-71.388-72.914 0-3.262 0.281-6.436 0.691-9.584-8.356 2.365-17.116 3.727-26.204 3.727-54.318 0.005-98.35-44.969-98.35-100.444 0-55.332 43.776-100.163 97.884-100.429v-0.021l315.638 0.010c0.051 0 0.092-0.010 0.092-0.010 54.354 0 98.386 44.964 98.386 100.45 0 51.077-37.351 93.148-85.653 99.517z" />
<glyph unicode="&#xe69b;" d="M324.925 145.541c-6.364 0-12.723-2.427-17.587-7.291l-26.471-26.46v77.803c0 13.737-11.136 24.863-24.868 24.863s-24.873-11.131-24.873-24.863v-77.803l-26.46 26.46c-4.859 4.864-11.213 7.291-17.587 7.291s-12.728-2.427-17.587-7.291c-9.713-9.712-9.713-25.472 0-35.164l68.915-68.915c1.162-1.173 2.432-2.202 3.799-3.113 0.614-0.404 1.264-0.676 1.899-1.024 0.788-0.43 1.552-0.896 2.386-1.244 0.819-0.348 1.669-0.543 2.514-0.798 0.717-0.19 1.387-0.466 2.13-0.62 1.607-0.313 3.226-0.491 4.864-0.491 1.628 0 3.272 0.179 4.869 0.486 0.743 0.154 1.408 0.43 2.13 0.62 0.839 0.256 1.69 0.45 2.519 0.798s1.587 0.814 2.365 1.244c0.645 0.348 1.296 0.62 1.91 1.024 1.372 0.916 2.642 1.966 3.804 3.113l68.91 68.915c9.712 9.697 9.712 25.452 0 35.164-4.854 4.849-11.218 7.296-17.582 7.296zM426.947 315.75c0.144 2.217 0.327 4.409 0.327 6.666 0 54.518-44.185 98.704-98.709 98.704-35.533 0-66.596-18.852-83.968-47.033-12.877 12.35-30.315 19.973-49.552 19.973-39.567 0-71.654-32.072-71.654-71.649 0-3.205 0.287-6.323 0.701-9.416-8.386 2.325-17.177 3.666-26.291 3.666-54.523 0-98.709-44.196-98.709-98.704 0-54.37 43.945-98.422 98.237-98.688v-0.021h35.174c-0.005 0.486-0.133 0.937-0.133 1.418 0 14.613 5.694 28.349 16.016 38.687 10.343 10.342 24.090 16.031 38.702 16.031 4.869 0 9.636-0.64 14.198-1.863v16.077c0 30.172 24.555 54.713 54.723 54.713 30.172 0 54.717-24.54 54.717-54.713v-16.077c4.587 1.224 9.339 1.863 14.208 1.863 14.597 0 28.344-5.688 38.697-16.031 10.327-10.337 16.021-24.074 16.021-38.687 0-0.486-0.128-0.937-0.144-1.418l34.596 0.021c0 0 0.082-0.021 0.113-0.021 54.512 0 98.704 44.185 98.704 98.709-0.010 50.186-37.504 91.536-85.975 97.792z" />
<glyph unicode="&#xe69c;" d="M426.332 314.178c0.144 2.217 0.333 4.409 0.333 6.666 0 54.518-44.037 98.703-98.35 98.703-35.42 0-66.361-18.846-83.681-47.032-12.826 12.349-30.203 19.978-49.382 19.978-39.419 0-71.383-32.072-71.383-71.65 0-3.205 0.272-6.323 0.681-9.416-8.346 2.325-17.106 3.661-26.194 3.661-54.318 0.005-98.355-44.19-98.355-98.698 0-54.37 43.786-98.432 97.884-98.688v-0.021h35.046c-0.005 0.491-0.133 0.947-0.133 1.428 0 14.618 5.673 28.365 15.97 38.687l68.68 68.905c2.514 2.535 5.32 4.839 8.315 6.84 1.387 0.922 2.806 1.726 3.973 2.309l0.348 0.195 0.113 0.061c1.572 0.881 3.154 1.71 4.88 2.437 2.391 0.988 4.444 1.561 5.397 1.817 1.48 0.487 2.99 0.922 5.012 1.351 3.518 0.681 7.060 1.029 10.506 1.029s6.968-0.348 10.496-1.029l0.24-0.041 0.246-0.056c1.577-0.327 3.077-0.768 4.685-1.29 1.741-0.487 3.456-1.034 5.305-1.802 2.099-0.881 3.784-1.817 4.997-2.509 0.891-0.446 2.555-1.3 4.275-2.473 2.964-1.982 5.745-4.255 8.325-6.83l68.654-68.91c10.301-10.332 15.985-24.074 15.985-38.697 0-0.486-0.123-0.942-0.144-1.428l34.468 0.010c0.051 0 0.092-0.010 0.123-0.010 54.318 0 98.355 44.185 98.355 98.709 0 50.186-37.356 91.536-85.668 97.792zM273.526 205.614c-1.157 1.157-2.427 2.186-3.789 3.092-0.599 0.409-1.26 0.697-1.884 1.029-0.784 0.44-1.541 0.911-2.375 1.255-0.819 0.338-1.68 0.533-2.514 0.784-0.697 0.21-1.377 0.481-2.11 0.635-1.603 0.313-3.226 0.486-4.859 0.486-1.613 0-3.246-0.174-4.844-0.486-0.732-0.154-1.408-0.425-2.109-0.635-0.845-0.24-1.7-0.445-2.509-0.784-0.839-0.343-1.593-0.814-2.381-1.244-0.625-0.343-1.28-0.63-1.889-1.039-1.367-0.911-2.637-1.95-3.784-3.103l-68.685-68.91c-9.682-9.707-9.682-25.457 0-35.169 4.839-4.859 11.192-7.291 17.52-7.291 6.349 0 12.688 2.432 17.536 7.291l26.358 26.466v-77.808c0-13.742 11.1-24.868 24.781-24.868 13.696 0 24.781 11.131 24.781 24.868v77.808l26.373-26.466c4.844-4.859 11.192-7.291 17.541-7.291 6.329 0 12.682 2.432 17.51 7.291 9.682 9.712 9.682 25.467 0 35.169l-68.669 68.921z" />
<glyph unicode="&#xe69d;" d="M256 228.915c-16.901 0-30.602 13.793-30.602 30.807v189.471c0 17.019 13.701 30.807 30.602 30.807s30.608-13.788 30.608-30.807v-189.471c0-17.014-13.706-30.807-30.608-30.807zM256-32c-115.753 0-209.925 94.807-209.925 211.328 0 64.732 28.892 125.005 79.257 165.361 13.22 10.603 32.466 8.407 42.998-4.921 10.522-13.312 8.33-32.691-4.889-43.29-35.691-28.595-56.172-71.301-56.172-117.15 0-82.555 66.729-149.714 148.726-149.714 82.002 0 148.715 67.159 148.715 149.714 0 45.85-20.464 88.546-56.161 117.15-13.22 10.599-15.406 29.983-4.874 43.295 10.522 13.312 29.773 15.513 42.993 4.915 50.361-40.361 79.242-100.634 79.242-165.361 0.005-116.521-94.167-211.328-209.91-211.328z" />
<glyph unicode="&#xe69e;" d="M256 480c-141.168 0-256-114.846-256-256.010 0-141.143 114.832-255.99 256-255.99 141.163 0 256 114.846 256 255.99 0 141.163-114.837 256.010-256 256.010zM432.845 207.334c-2.027-4.368-51.435-106.782-176.819-106.782s-174.817 102.421-176.855 106.783c-4.951 10.558-4.951 22.768 0 33.331 2.038 4.368 51.471 106.772 176.855 106.772s174.792-102.405 176.819-106.772c4.976-10.563 4.976-22.769 0-33.331zM280.089 248.028c-14.101 14.116-16.43 35.374-7.388 52.066-25.293 5.586-52.798-1.27-72.474-20.941-30.628-30.638-30.628-80.343 0-110.961 30.638-30.638 80.322-30.638 110.966 0 19.692 19.687 26.558 47.191 20.946 72.489-16.702-9.078-37.97-6.743-52.050 7.347z" />
<glyph unicode="&#xe69f;" d="M405.197 224.025c-58.947 0-106.85-48.276-106.85-107.53 0-59.3 47.903-107.536 106.85-107.536 58.901 0 106.803 48.236 106.803 107.536 0 59.254-47.903 107.53-106.803 107.53zM362.824 331.515c0 59.3-47.908 107.525-106.808 107.525-58.952 0-106.855-48.225-106.855-107.525 0-59.259 47.903-107.49 106.855-107.49 58.901 0 106.808 48.231 106.808 107.49zM256.015 291.538c-21.904 0-39.721 17.93-39.721 39.972s17.813 39.972 39.721 39.972c21.893 0 39.67-17.93 39.67-39.972s-17.776-39.972-39.67-39.972zM106.834 224.025c-58.941 0-106.834-48.276-106.834-107.53 0-59.3 47.892-107.536 106.834-107.536 58.916 0 106.803 48.236 106.803 107.536 0.005 59.254-47.887 107.53-106.803 107.53zM106.834 76.524c-21.924 0-39.721 17.925-39.721 39.972 0 22.041 17.797 39.966 39.721 39.966 21.918 0 39.696-17.925 39.696-39.966 0-22.046-17.776-39.972-39.696-39.972z" />
<glyph unicode="&#xe6a0;" d="M103.813 244.157l132.096 131.948c23.757 23.838 23.757 62.264 0 86.098-23.849 23.731-62.341 23.731-86.067 0l-132.024-132.060c-23.762-23.752-23.762-62.264 0-85.99 11.894-11.919 27.361-17.899 42.998-17.899 15.529 0 31.114 5.98 42.998 17.904zM494.157 203.863c-23.772 23.813-62.213 23.813-86.052 0l-132.060-131.973c-23.782-23.752-23.782-62.259 0-86.011 11.94-11.894 27.469-17.879 43.013-17.879 15.647 0 31.222 5.986 43.059 17.879l132.034 131.973c23.798 23.747 23.798 62.264 0.005 86.011zM443.781 411.842c-23.782 23.752-62.305 23.752-86.006 0l-289.551-289.634c-23.823-23.726-23.823-62.238 0-85.965 11.832-11.919 27.412-17.899 42.993-17.899 15.575 0 31.13 5.98 43.003 17.899l289.557 289.521c23.818 23.813 23.818 62.326 0.005 86.077z" />
<glyph unicode="&#xe6a1;" d="M468.874 436.894c-34.11 34.161-60.13 43.106-78.192 43.106-20.024 0-30.111-11.182-30.111-11.182l-285.732-285.808 140.201-140.16 285.758 285.691c0 0 40.284 36.091-31.923 108.354zM6.385-25.692c4.506-4.409 11.909-6.308 21.284-6.308 39.696 0 114.709 34.094 153.488 53.192l-127.969 127.877c-23.639-47.928-70.165-151.296-46.802-174.761z" />
<glyph unicode="&#xe6a2;" d="M253.302 219.571c0.272 0 0.471 0 0.712 0 57.298 0.702 110.377 85.837 109.593 151.255-0.676 60.478-50.565 109.174-111.36 109.174-0.507 0-0.927 0-1.398 0-61.44-0.645-110.884-50.811-110.203-111.708 0.911-65.229 55.44-148.721 112.656-148.721zM465.239 90.368c-0.604 75.428-20.956 90.010-41.575 98.452-12.483 5.099-32.21 10.399-51.42 15.437-18.596 4.864-32.671 8.678-43.305 12.462-21.97-19.333-47.514-31.58-74.563-31.867h-1.075c-26.675 0-52.188 11.653-74.225 30.31-10.373-3.789-23.751-7.69-41.246-12.642-19.374-5.499-39.368-11.233-51.917-16.635-19.589-8.448-40.464-23.716-39.818-99.087l0.706-79.693c28.273-11.474 108.892-39.957 210.018-39.091 101.376 0.901 181.207 30.71 209.106 42.665l-0.686 79.688z" />
<glyph unicode="&#xe6a3;" d="M253.302 219.571c0.272 0 0.471 0 0.712 0 57.298 0.702 110.377 85.837 109.593 151.255-0.676 60.483-50.565 109.174-111.36 109.174-0.507 0-0.927 0-1.398 0-61.44-0.64-110.884-50.811-110.203-111.708 0.911-65.229 55.44-148.721 112.656-148.721zM465.239 90.368c-0.604 75.428-20.956 90.010-41.575 98.452-12.483 5.099-32.21 10.399-51.42 15.437-18.596 4.864-32.671 8.678-43.305 12.462-21.97-19.333-47.514-31.58-74.563-31.867h-1.075c-26.675 0-52.188 11.653-74.225 30.31-10.373-3.789-23.751-7.69-41.246-12.642-19.374-5.499-39.368-11.233-51.917-16.635-19.589-8.448-40.464-23.716-39.818-99.087l0.706-79.693c28.273-11.474 108.892-39.957 210.018-39.091 101.376 0.901 181.207 30.71 209.106 42.665l-0.686 79.688z" />
<glyph unicode="&#xe6a4;" d="M294.067 133.135c-9.216 3.815-23.772 7.777-37.959 11.536-13.726 3.635-24.115 6.507-31.959 9.319-16.22-14.449-35.088-23.613-55.040-23.829h-0.798c-19.696 0-38.528 8.714-54.789 22.671-7.659-2.841-17.536-5.76-30.439-9.452-14.311-4.116-29.066-8.407-38.323-12.447-14.464-6.323-29.881-17.721-29.389-74.096l0.522-59.602c20.869-8.571 80.359-29.865 155.013-29.22 74.814 0.671 133.755 22.969 154.348 31.892l-0.502 59.597c-0.445 56.412-15.462 67.323-30.684 73.63zM339.702 285.245c0.205 0 0.353 0 0.522 0 42.291 0.517 81.474 64.195 80.896 113.096-0.497 45.245-37.33 81.659-82.202 81.659-0.374 0-0.671 0-1.024 0-45.358-0.466-81.853-37.99-81.362-83.538 0.691-48.788 40.935-111.216 83.169-111.216zM168.315 156.119c0.205 0 0.343 0 0.522 0 42.286 0.517 81.464 64.205 80.891 113.101-0.496 45.255-37.32 81.659-82.192 81.659-0.374 0-0.671 0-1.024 0-45.358-0.466-81.859-37.99-81.357-83.538 0.686-48.784 40.924-111.222 83.159-111.222zM496.138 188.626c-0.45 56.407-15.467 67.323-30.69 73.63-9.216 3.815-23.772 7.778-37.954 11.536-13.721 3.635-24.11 6.507-31.954 9.319-16.215-14.454-35.087-23.614-55.040-23.829h-0.798c-19.697 0-38.528 8.714-54.784 22.671-2.468-0.916-5.264-1.848-8.238-2.811 0.317-3.159 0.558-6.349 0.599-9.595 0.368-31.289-11.771-66.166-31.36-93.425 4.885-1.398 10.583-2.944 17.209-4.7 15.708-4.158 30.695-8.264 41.436-12.713 25.031-10.353 39.070-29.026 44.743-61.389 71.454 1.945 127.385 23.055 147.333 31.708l-0.502 59.597z" />
<glyph unicode="&#xe6a5;" d="M40.218 49.92h431.565c22.211 0 40.217 18.12 40.217 40.464v266.952c0 22.344-18.012 40.745-40.217 40.745h-431.565c-22.206 0-40.218-18.401-40.218-40.745v-266.952c0-22.344 18.012-40.464 40.218-40.464zM60.329 337.387h391.342v-164.777l-72.418 72.847c-11.781 11.853-30.868 11.853-42.649 0l-88.478-88.991-30.695 30.873c-11.781 11.853-30.869 11.853-42.649 0l-76.278-76.728h-38.175v226.775z" />
<glyph unicode="&#xe6a6;" d="M441.579 413.44h-371.159c-38.733 0-70.421-31.795-70.421-70.656v-237.563c0-38.861 31.688-70.661 70.421-70.661h371.159c38.733 0 70.421 31.8 70.421 70.661v237.563c0 38.861-31.688 70.656-70.421 70.656zM317.619 201.938l-80.21-46.469c-3.932-2.284-8.325-3.415-12.697-3.415-4.388 0-8.775 1.132-12.702 3.415-7.859 4.546-12.692 12.959-12.692 22.057v92.928c0 9.113 4.833 17.531 12.692 22.077 7.859 4.557 17.552 4.557 25.405 0l80.21-46.464c7.859-4.552 12.692-12.953 12.692-22.067 0-9.093-4.839-17.52-12.697-22.062z" />
<glyph unicode="&#xe6a7;" d="M299.668 26.091c0-32.788-25.718-58.091-60.298-58.091-34.698 0-60.35 25.298-60.35 58.091v1.398c0 32.829 25.651 58.112 60.35 58.112 34.581 0 60.298-25.282 60.298-58.112v-1.398zM293.31 173.973c-14.238-14.039-15.171-48.179-53.939-48.179-25.452 0-47.559 19.123-51.502 45.471l-6.948 46.495c-2.243 14.525 0.809 27.72 8.74 38.077 7.962 10.368 20.572 17.111 35.44 18.923 75.591 9.431 75.591 34.765 75.591 45.578 0 29.911-26.911 35.897-49.552 35.897-26.398 0-49.239-7.803-71.921-24.519-11.96-8.894-26.050-13.753-39.67-13.753-34.053 0.005-62.751 28.345-62.751 61.881 0 18.191 8.458 35.594 23.122 47.688 43.126 35.328 93.297 52.47 153.359 52.47 112.169 0 181.918-59.602 181.918-155.571 0-132.941-127.688-136.412-141.891-150.457z" />
<glyph unicode="&#xe6a8;" d="M20144.631 325.897c0 0 107.369 0.202-19.808 0.202-139.768 0-139.768 134.295-279.501 134.295-139.768 0-139.768-134.295-279.535-134.295-139.835 0-139.835 134.295-279.636 134.295-139.835 0-139.835-134.295-279.669-134.295-139.768 0-139.768 134.295-279.569 134.295-139.835 0-139.835-134.295-279.669-134.295-139.801 0-139.801 134.295-279.569 134.295-139.835 0-139.835-134.295-279.603-134.295-139.801 0-139.801 134.295-279.636 134.295-139.768 0-139.768-134.295-279.535-134.295-139.869 0-139.869 134.295-279.636 134.295s-139.768-134.295-279.569-134.295c-139.768 0-139.768 134.295-279.603 134.295s-139.835-134.295-279.636-134.295c-139.767 0-139.767 134.295-279.535 134.295s-139.767-134.295-279.569-134.295c-139.835 0-139.835 134.295-279.603 134.295-139.801 0-139.801-134.295-279.502-134.295-139.767 0-139.767 134.295-279.535 134.295-139.869 0-139.869-134.295-279.703-134.295-139.767 0-139.767 134.295-279.468 134.295-139.801 0-139.801-134.295-279.569-134.295s-139.767 134.295-279.535 134.295c-139.801 0-139.801-134.295-279.636-134.295-139.767 0-139.767 134.295-279.535 134.295-139.734 0-139.734-134.295-279.502-134.295s-139.767 134.295-279.502 134.295c-139.767 0-139.767-134.295-279.535-134.295s-139.767 134.295-279.636 134.295c-139.701 0-139.701-134.295-279.468-134.295-139.701 0-139.701 134.295-279.502 134.295-139.701 0-139.701-134.295-279.468-134.295s-139.767 134.295-279.569 134.295c-139.767 0-139.767-134.295-279.535-134.295-139.701 0-139.701 134.295-279.502 134.295-139.701 0-139.701-134.295-279.401-134.295-139.801 0-139.801 134.295-279.502 134.295-139.734 0-139.734-134.295-279.502-134.295-139.801 0-139.801 134.295-279.569 134.295-139.801 0-139.801-134.295-279.569-134.295-139.734 0-139.734 134.295-279.502 134.295-139.701 0-139.701-134.295-279.401-134.295-139.734 0-139.734 134.295-279.435 134.295-139.734 0-139.734-134.295-279.435-134.295-139.734 0-139.734 134.295-279.435 134.295-139.801 0-139.801-134.295-279.569-134.295-139.801 0-139.801 134.295-279.569 134.295-139.7 0-139.7-134.295-279.468-134.295-139.734 0-139.734 134.295-279.435 134.295-139.734 0-139.734-134.295-279.368-134.295-139.734 0-139.734 134.295-279.435 134.295-139.667 0-139.667-134.295-279.368-134.295-139.734 0-139.734 134.295-279.435 134.295-139.801 0-139.801-134.295-279.502-134.295-139.801 0-139.801 134.295-279.569 134.295-139.801 0-139.801-134.295-279.569-134.295-139.734 0-139.734 134.295-279.435 134.295-139.667 0-139.667-134.295-279.367-134.295-139.667 0-139.667 134.295-279.367 134.295-139.667 0-139.667-134.295-279.3-134.295-139.734 0-139.734 134.295-279.367 134.295-139.734 0-139.734-134.295-279.367-134.295-139.7 0-139.7 134.295-279.434 134.295-139.767 0-139.767-134.295-279.501-134.295-139.767 0-139.767 134.295-279.569 134.295-139.7 0-139.7-134.295-279.502-134.295-139.7 0-139.7 134.295-279.435 134.295-139.633 0-139.633-134.295-279.3-134.295-139.768 0-139.768 134.295-279.569 134.295-139.701 0-139.701-134.295-279.502-134.295-139.768 0-139.768 134.295-279.569 134.295-139.701 0-139.701-134.295-279.502-134.295v-332.918l20143.792-13.060 0.907 345.776z" horiz-adv-x="20145" />
<glyph unicode="&#xe6a9;" d="M441.072 342.825h-41.129v59.495c0 25.912-21.212 46.96-47.268 46.96h-193.372c-26.112 0-47.257-21.048-47.257-46.96v-59.495h-41.118c-39.199 0-70.927-31.539-70.927-70.457v-113.337c0-38.912 31.729-70.457 70.927-70.457h41.118v-42.901c0-25.964 21.15-46.961 47.257-46.961h193.372c26.061 0 47.268 20.997 47.268 46.961v42.901h41.129c39.183 0.005 70.928 31.55 70.928 70.462v113.331c0 38.917-31.744 70.457-70.928 70.457zM352.676 45.68h-193.372v140.103h193.372v-140.103zM352.676 342.825h-193.372v59.495h193.372v-59.495zM456.048 247.153c-3.835-3.983-9.457-6.093-14.94-6.093-5.668 0-11.095 2.109-15.084 6.093-4.039 3.978-6.205 9.38-6.205 14.992 0 5.401 2.166 11.029 6.205 14.827 8.007 7.946 22.221 7.946 30.024 0.174 4.019-3.968 6.37-9.369 6.37-15.001 0-5.611-2.35-11.013-6.37-14.992z" />
<glyph unicode="&#xe6aa;" d="M389.975 241.822h-28.708v140.385c26.849 0.185 48.558 21.975 48.558 48.881 0 27.008-21.904 48.911-48.911 48.911h-209.849c-27.003 0-48.911-21.904-48.911-48.911 0-26.906 21.73-48.697 48.578-48.881v-140.38h-28.708c-27.003 0-48.911-21.903-48.911-48.922s21.904-48.921 48.911-48.921h97.044l13.491-152.54c0-12.938 10.491-23.445 23.44-23.445s23.454 10.506 23.454 23.445l13.476 152.54h97.044c27.003 0 48.911 21.904 48.911 48.921s-21.909 48.916-48.911 48.916z" />
<glyph unicode="&#xe6ab;" d="M444.615 480c-14.597 0-26.425-11.745-26.425-26.23v-19.645h-0.031c-0.021-6.119-5.017-11.065-11.192-11.065s-11.166 4.946-11.192 11.065h-0.174v19.645c0 14.485-11.832 26.23-26.43 26.23s-26.419-11.745-26.419-26.23v-19.645h-0.072c0-6.139-5.012-11.111-11.187-11.111-6.185 0-11.202 4.971-11.202 11.111h-0.138v19.645c-0.005 14.485-11.822 26.23-26.43 26.23s-26.425-11.745-26.425-26.23v-19.645h-0.108c0-6.139-5.007-11.111-11.192-11.111s-11.197 4.971-11.197 11.111h-0.102v19.645c0.010 14.485-11.827 26.23-26.414 26.23-14.602 0-26.424-11.745-26.424-26.23v-19.645h-0.071c0-6.139-5.012-11.111-11.187-11.111-6.185 0-11.192 4.971-11.192 11.111h-0.164v19.645c0 14.485-11.827 26.23-26.424 26.23-14.592 0-26.424-11.745-26.424-26.23v-19.645h-0.092c0-6.139-5.013-11.111-11.198-11.111s-11.192 4.971-11.192 11.111h-0.112v19.645c0 14.485-11.827 26.23-26.424 26.23-14.582 0-26.419-11.745-26.419-26.23v-459.541c0-14.485 11.837-26.23 26.424-26.23h377.231c14.592 0 26.425 11.745 26.425 26.23v459.541c0 14.485-11.832 26.23-26.425 26.23z" />
<glyph unicode="&#xe6ac;" d="M3.385 164.654c47.458 129.762 193.582 197.447 325.837 150.866 41.488-14.612 77.578-39.040 105.707-70.605l7.726 34.442c4.24 18.913 23.291 30.878 42.567 26.701 19.277-4.162 31.457-22.866 27.213-41.789l-27.111-120.817c-0.092-0.414-0.297-0.804-0.399-1.214-0.368-1.5-0.891-2.923-1.449-4.362-0.154-0.404-0.281-0.839-0.471-1.239-3.81-8.827-11.151-16.133-21.11-19.507-3.881-1.316-7.798-1.93-11.668-1.93-4.956 0-9.789 1.106-14.233 3.010l-116.327 25.139c-19.267 4.158-31.462 22.876-27.202 41.784 4.24 18.903 23.276 30.899 42.567 26.706l42.394-9.159c-19.666 20.782-44.278 36.946-72.351 46.833-95.13 33.5-200.294-15.186-234.435-108.554-6.666-18.233-27.146-27.704-45.706-21.156-18.57 6.548-28.211 26.629-21.55 44.851z" />
<glyph unicode="&#xe6ad;" d="M20144.631 114.616c0 0 107.369-0.202-19.808-0.202-139.768 0-139.768-134.295-279.501-134.295-139.768 0-139.768 134.295-279.535 134.295-139.835 0-139.835-134.295-279.636-134.295-139.835 0-139.835 134.295-279.669 134.295-139.768 0-139.768-134.295-279.569-134.295-139.835 0-139.835 134.295-279.669 134.295-139.801 0-139.801-134.295-279.569-134.295-139.835 0-139.835 134.295-279.603 134.295-139.801 0-139.801-134.295-279.636-134.295-139.768 0-139.768 134.295-279.535 134.295-139.869 0-139.869-134.295-279.636-134.295s-139.768 134.295-279.569 134.295c-139.768 0-139.768-134.295-279.603-134.295s-139.835 134.295-279.636 134.295c-139.767 0-139.767-134.295-279.535-134.295s-139.767 134.295-279.569 134.295c-139.835 0-139.835-134.295-279.603-134.295-139.801 0-139.801 134.295-279.502 134.295-139.767 0-139.767-134.295-279.535-134.295-139.869 0-139.869 134.295-279.703 134.295-139.767 0-139.767-134.295-279.468-134.295-139.801 0-139.801 134.295-279.569 134.295s-139.767-134.295-279.535-134.295c-139.801 0-139.801 134.295-279.636 134.295-139.767 0-139.767-134.295-279.535-134.295-139.734 0-139.734 134.295-279.502 134.295s-139.767-134.295-279.502-134.295c-139.767 0-139.767 134.295-279.535 134.295s-139.767-134.295-279.636-134.295c-139.701 0-139.701 134.295-279.468 134.295-139.701 0-139.701-134.295-279.502-134.295-139.701 0-139.701 134.295-279.468 134.295s-139.767-134.295-279.569-134.295c-139.767 0-139.767 134.295-279.535 134.295-139.701 0-139.701-134.295-279.502-134.295-139.701 0-139.701 134.295-279.401 134.295-139.801 0-139.801-134.295-279.502-134.295-139.734 0-139.734 134.295-279.502 134.295-139.801 0-139.801-134.295-279.569-134.295-139.801 0-139.801 134.295-279.569 134.295-139.734 0-139.734-134.295-279.502-134.295-139.701 0-139.701 134.295-279.401 134.295-139.734 0-139.734-134.295-279.435-134.295-139.734 0-139.734 134.295-279.435 134.295-139.734 0-139.734-134.295-279.435-134.295-139.801 0-139.801 134.295-279.569 134.295-139.801 0-139.801-134.295-279.569-134.295-139.7 0-139.7 134.295-279.468 134.295-139.734 0-139.734-134.295-279.435-134.295-139.734 0-139.734 134.295-279.368 134.295-139.734 0-139.734-134.295-279.435-134.295-139.667 0-139.667 134.295-279.368 134.295-139.734 0-139.734-134.295-279.435-134.295-139.801 0-139.801 134.295-279.502 134.295-139.801 0-139.801-134.295-279.569-134.295-139.801 0-139.801 134.295-279.569 134.295-139.734 0-139.734-134.295-279.435-134.295-139.667 0-139.667 134.295-279.367 134.295-139.667 0-139.667-134.295-279.367-134.295-139.667 0-139.667 134.295-279.3 134.295-139.734 0-139.734-134.295-279.367-134.295-139.734 0-139.734 134.295-279.367 134.295-139.7 0-139.7-134.295-279.434-134.295-139.767 0-139.767 134.295-279.501 134.295-139.767 0-139.767-134.295-279.569-134.295-139.7 0-139.7 134.295-279.502 134.295-139.7 0-139.7-134.295-279.435-134.295-139.633 0-139.633 134.295-279.3 134.295-139.768 0-139.768-134.295-279.569-134.295-139.701 0-139.701 134.295-279.502 134.295-139.768 0-139.768-134.295-279.569-134.295-139.701 0-139.701 134.295-279.502 134.295v332.918l20143.792 13.060 0.907-345.776z" horiz-adv-x="20145" />
<glyph unicode="&#xe6ae;" d="M255.749 442.148c-38.129 0-74.803-9.677-107.090-27.571l3.947 30.704c2.186 16.87-9.779 32.297-26.727 34.468-16.906 2.125-32.42-9.744-34.591-26.619l-13.906-107.755c-0.056-0.374 0-0.738-0.041-1.111-0.153-1.428-0.153-2.852-0.108-4.28 0.020-0.343-0.016-0.697 0-1.045 0.528-8.356 4.326-16.482 11.382-22.139 6.246-4.992 13.819-7.081 21.228-6.625l102.41-13.113c1.337-0.164 2.667-0.261 3.988-0.261 15.304 0 28.611 11.341 30.618 26.87 2.171 16.88-9.794 32.307-26.721 34.478l-37.243 4.772c22.19 11.443 47.042 17.633 72.847 17.633 87.445 0 158.592-70.871 158.592-157.972 0-16.993 13.839-30.791 30.904-30.791 17.081 0 30.914 13.793 30.914 30.791 0.005 121.083-98.873 219.566-220.406 219.566zM434.77 107.776c-0.015 0.389 0.021 0.768-0.015 1.162-0.491 8.387-4.291 16.574-11.382 22.267-6.247 4.997-13.839 7.086-21.238 6.635l-102.395 13.097c-16.957 2.089-32.425-9.753-34.596-26.614-2.186-16.875 9.779-32.302 26.721-34.478l37.228-4.767c-22.19-11.443-47.058-17.634-72.848-17.634-87.445 0-158.577 70.866-158.577 157.972 0 16.999-13.855 30.797-30.919 30.797-17.075-0.015-30.91-13.809-30.91-30.812 0-121.058 98.877-219.556 220.411-219.556 38.129 0 74.803 9.677 107.111 27.587l-3.968-30.72c-2.166-16.87 9.779-32.297 26.726-34.462 1.337-0.159 2.668-0.251 3.968-0.251 15.324 0 28.626 11.336 30.618 26.865l13.906 107.755c0.057 0.368 0 0.748 0.041 1.127 0.154 1.331 0.138 2.673 0.118 4.029z" />
<glyph unicode="&#xe6af;" d="M255.749 442.148c-38.129 0-74.809-9.677-107.111-27.571l3.968 30.695c2.166 16.875-9.79 32.307-26.727 34.478-16.906 2.125-32.425-9.743-34.601-26.619l-13.895-107.755c-0.061-0.379 0-0.743-0.041-1.106-0.153-1.433-0.153-2.852-0.118-4.286 0.016-0.343-0.010-0.691 0.016-1.055 0.517-8.345 4.322-16.481 11.382-22.128 6.236-4.992 13.819-7.081 21.222-6.631l102.415-13.112c1.337-0.154 2.662-0.256 3.968-0.256 15.319 0 28.631 11.346 30.623 26.88 2.186 16.875-9.779 32.307-26.721 34.478l-37.238 4.767c22.201 11.438 47.047 17.638 72.852 17.638 87.445 0 158.587-70.876 158.587-157.972 0-16.993 13.844-30.797 30.909-30.797 17.070 0 30.914 13.803 30.914 30.797 0.005 121.072-98.873 219.556-220.406 219.556zM434.755 107.771c-0.010 0.394 0.026 0.773 0 1.157-0.491 8.397-4.286 16.584-11.387 22.267-6.247 4.997-13.834 7.086-21.233 6.635l-102.405 13.097c-16.952 2.089-32.414-9.743-34.601-26.603-2.171-16.875 9.794-32.302 26.721-34.478l37.228-4.767c-22.195-11.454-47.043-17.639-72.842-17.639-87.434 0-158.582 70.861-158.582 157.972 0 16.999-13.84 30.787-30.915 30.787-17.065-0.010-30.899-13.799-30.899-30.797 0-121.052 98.877-219.55 220.4-219.55 38.134 0 74.819 9.671 107.106 27.587l-3.952-30.73c-2.181-16.86 9.779-32.286 26.726-34.462 1.337-0.154 2.652-0.24 3.968-0.24 15.309 0 28.615 11.33 30.618 26.86l13.906 107.76c0.051 0.363-0.005 0.748 0.026 1.127 0.154 1.321 0.154 2.668 0.118 4.019z" />
<glyph unicode="&#xe6b0;" d="M457.324 381.788c-7.736 9.866-16.19 19.205-25.344 27.842-0.399 0.353-0.661 0.707-1.142 1.050-8.919 8.387-18.416 16.159-28.462 23.234-0.251 0.159-0.389 0.251-0.65 0.43-9.6 6.805-19.942 12.836-30.5 18.161-1.92 0.86-3.753 1.741-5.719 2.693-33.25 15.724-70.293 24.802-109.584 24.802-39.27 0-76.406-9.078-109.609-24.796-1.874-0.957-3.712-1.741-5.673-2.693-10.558-5.33-20.854-11.356-30.546-18.16-0.215-0.185-0.353-0.272-0.481-0.43-10.076-6.983-19.553-14.848-28.539-23.235-0.481-0.43-0.793-0.691-1.183-1.050-9.108-8.637-17.495-17.889-25.211-27.75-0.092 0-0.133-0.092-0.133-0.261-34.084-43.484-54.548-98.043-54.548-157.578 0-141.338 114.544-256.046 255.923-256.046 141.45 0 256.077 114.709 256.077 256.046 0 59.536-20.551 114.094-54.63 157.573 0 0.169 0 0.169-0.046 0.169zM376.853 192.098h-120.93c-17.577 0-31.934 14.315-31.934 31.949v158.438c0 17.634 14.362 31.949 31.934 31.949 17.644 0 32-14.315 32-31.949v-126.484h88.924c17.68 0 31.897-14.233 31.897-31.954 0.005-17.639-14.213-31.949-31.892-31.949z" />
<glyph unicode="&#xe6b1;" d="M424.223 313.093c-6.466 8.32-13.491 16.077-21.171 23.25-0.322 0.327-0.563 0.65-0.962 0.886-7.44 7.030-15.36 13.486-23.767 19.379-0.159 0.169-0.317 0.24-0.486 0.399-8.079 5.657-16.727 10.66-25.529 15.094-1.618 0.727-3.149 1.526-4.762 2.263-27.807 13.148-58.752 20.746-91.561 20.746-32.804 0-63.836-7.593-91.546-20.746-1.607-0.738-3.149-1.454-4.772-2.263-8.806-4.439-17.454-9.436-25.529-15.094-0.169-0.159-0.246-0.231-0.399-0.317-8.407-5.893-16.323-12.436-23.849-19.461-0.4-0.317-0.64-0.558-0.963-0.886-7.593-7.173-14.633-14.93-21.084-23.163-0.087 0-0.087-0.159-0.087-0.159-28.442-36.244-45.573-81.833-45.573-131.471 0-117.924 95.667-213.55 213.806-213.55 118.144 0 213.97 95.626 213.97 213.55 0 49.633-17.209 95.227-45.65 131.543 0 0 0 0-0.087 0zM356.997 154.916h-101.007c-14.704 0-26.654 11.94-26.654 26.634v132.194c0 14.684 11.95 26.634 26.654 26.634 14.72 0 26.742-11.95 26.742-26.634v-105.564h74.266c14.791 0 26.67-11.858 26.67-26.629 0-14.695-11.884-26.634-26.67-26.634zM469.305 341.663c12.135 14.612 19.656 33.095 19.656 53.514 0 46.889-38.072 84.823-84.935 84.823-31.268 0-58.414-17.106-73.134-42.373 56.007-16.379 104.248-50.601 138.414-95.964zM181.012 437.627c-14.551 25.267-41.697 42.373-72.965 42.373-46.95 0-85.007-37.934-85.007-84.823 0-20.418 7.506-38.902 19.63-53.586 34.176 45.435 82.416 79.657 138.343 96.036z" />
<glyph unicode="&#xe6b2;" d="M286.597 195.277v55.506c25.262 7.798 46.459 24.837 59.479 47.299h-180.162c13.015-22.462 34.222-39.501 59.489-47.299v-55.506c-42.578-13.051-73.534-52.623-73.534-99.492h208.24c0.005 46.853-30.945 86.441-73.513 99.492zM486.507 57.36h-28.053v23.726c0 53.678-21.924 105.175-59.801 142.915 37.873 37.739 59.801 89.232 59.801 142.894v23.747h28.053c14.070 0 25.493 11.407 25.493 25.482s-11.423 25.482-25.493 25.482h-461.010c-14.085-0.005-25.497-11.418-25.497-25.488 0-14.075 11.412-25.482 25.497-25.482h28.052v-23.747c0-53.673 21.909-105.165 59.786-142.894-37.878-37.74-59.786-89.221-59.786-142.914v-23.726h-28.052c-14.085 0-25.497-11.408-25.497-25.477 0-14.075 11.412-25.477 25.497-25.477h461.005c14.070 0 25.493 11.402 25.493 25.488 0.005 14.070-11.418 25.472-25.488 25.472zM104.546 57.36v23.726c0 48.722 22.948 93.296 62.966 122.276 6.61 4.803 10.526 12.467 10.526 20.638 0 8.161-3.917 15.836-10.526 20.633-40.018 28.995-62.966 73.564-62.966 122.26v23.747h302.909v-23.747c0-48.681-22.953-93.25-62.976-122.27-6.605-4.787-10.517-12.462-10.517-20.624s3.911-15.836 10.526-20.629c40.007-29.010 62.966-73.584 62.966-122.286v-23.726h-302.909z" />
<glyph unicode="&#xe6b3;" d="M467.938 151.199c-25.943 1.92-48.456-18.657-50.166-45.63-0.589-9.303-4.869-39.664-35.21-39.664-23.813 0-29.302 21.397-29.701 38.774v117.858h29.701c26.050 0 47.161 21.913 47.161 48.952s-21.11 48.952-47.161 48.952h-335.396c-26.050-0.005-47.166-21.918-47.166-48.957 0-27.034 21.115-48.953 47.166-48.953h49.971c-0.563-35.978-13.85-98.852-83.313-170.972-18.427-19.103-18.427-50.099 0-69.228 9.195-9.549 21.273-14.331 33.342-14.331s24.146 4.782 33.346 14.341c90.701 94.126 110.136 182.743 110.608 240.195h67.415v-117.858c0.005-54.942 33.034-136.679 124.027-136.679 88.796 0 125.998 78.418 129.331 131.134 1.71 26.983-17.966 50.294-43.955 52.065zM95.683 382.096h210.018c26.050 0 47.166 21.918 47.166 48.952-0.005 27.038-21.12 48.952-47.171 48.952h-210.012c-26.050 0-47.166-21.913-47.166-48.952 0-27.034 21.115-48.952 47.166-48.952z" />
<glyph unicode="&#xe6b4;" d="M511.171 280.786c-47.452-129.767-193.577-197.453-325.832-150.866-41.488 14.613-77.578 39.040-105.707 70.605l-7.731-34.447c-4.234-18.908-23.291-30.878-42.563-26.701-19.277 4.158-31.457 22.866-27.213 41.784l27.11 120.827c0.092 0.414 0.302 0.804 0.399 1.214 0.369 1.5 0.891 2.923 1.449 4.362 0.154 0.404 0.282 0.839 0.471 1.239 3.804 8.827 11.151 16.133 21.11 19.507 3.876 1.316 7.798 1.93 11.668 1.93 4.956 0 9.79-1.106 14.228-3.011l116.337-25.139c19.256-4.157 31.458-22.876 27.197-41.784-4.234-18.903-23.27-30.899-42.563-26.706l-42.394 9.16c19.661-20.782 44.278-36.946 72.351-46.832 95.13-33.5 200.294 15.191 234.435 108.554 6.666 18.232 27.146 27.704 45.706 21.156s28.206-26.629 21.54-44.851z" />
<glyph unicode="&#xe6b5;" d="M409.718 56.31l-178.084 107.991c29.486 23.373 51.308 56.12 61.2 93.721h92.447c25.989 0 47.058 21.284 47.058 47.539s-21.069 47.539-47.058 47.539h-93.671c-3.226 11.095-7.445 21.76-12.667 31.826h109.194c25.989 0 47.058 21.284 47.058 47.539s-21.063 47.534-47.053 47.534h-264.279c-25.989 0-47.058-21.284-47.058-47.539s21.069-47.539 47.058-47.539c25.974 0 49.075-12.513 63.851-31.826h-63.852c-25.989 0-47.058-21.284-47.058-47.539s21.069-47.539 47.058-47.539h67.102c-14.494-21.852-39.168-36.27-67.103-36.27-21.151 0-39.706-14.264-45.353-34.862-5.647-20.572 3.001-42.44 21.13-53.438l261.637-158.663c7.588-4.603 15.928-6.789 24.182-6.789 15.979 0 31.565 8.228 40.392 23.065 13.368 22.518 6.154 51.733-16.133 65.25z" />
<glyph unicode="&#xe6b6;" d="M353.28 279.086v25.728c0 13.266-10.818 24.034-24.176 24.034h-146.207c-13.353 0-24.177-10.772-24.177-24.034v-25.728c0-6.308 2.499-12.38 6.953-16.87 11.653-11.756 18.073-27.274 18.073-43.73 0-16.45-6.421-31.969-18.073-43.73-4.454-4.485-6.953-10.537-6.953-16.845v-165.878c0-13.261 10.819-24.028 24.177-24.028h146.212c13.353-0.005 24.171 10.767 24.171 24.023v165.883c0 6.308-2.498 12.36-6.953 16.85-11.653 11.76-18.074 27.279-18.074 43.73s6.421 31.975 18.074 43.73c4.454 4.485 6.953 10.558 6.953 16.865zM185.201 359.608h141.598c13.353 0 24.182 10.772 24.182 24.034s-10.005 20.076-24.182 24.028c-14.183 3.952-49.255 13.732-49.255 13.732l-8.402 45.527c0 7.219-5.883 13.071-13.143 13.071-7.266 0-13.154-5.857-13.154-13.076l-8.392-45.527c0 0-39.721-11.792-49.255-13.732-9.543-1.94-24.182-10.772-24.182-24.028 0-13.261 10.819-24.028 24.182-24.028z" />
<glyph unicode="&#xe6b7;" d="M451.287 480h-390.666c-33.49 0-60.621-27.151-60.621-60.692v-390.615c0-33.541 27.131-60.692 60.621-60.692h390.666c33.49 0 60.713 27.151 60.713 60.692v390.615c0 33.541-27.223 60.692-60.713 60.692zM390.594 89.385h-134.631v134.605h-134.605v134.625h134.605v-134.63h134.631v-134.6z" />
<glyph unicode="&#xe6b8;" d="M191.155 397.419c0-17.93-5.791-34.473-15.524-48.020l61.875-93.031h89.943c12.611 29.532 41.943 50.227 76.155 50.227 45.732-0.005 82.796-36.977 82.796-82.596s-37.063-82.591-82.791-82.591c-34.212 0-63.544 20.7-76.155 50.227h-89.923l-61.855-93.066c9.692-13.532 15.478-30.060 15.478-47.969 0-45.63-37.069-82.601-82.79-82.601s-82.765 36.971-82.765 82.601c0 45.599 37.043 82.57 82.77 82.57 4.055 0 7.982-0.379 11.894-0.937l61.051 91.766-61.123 91.766c-3.865-0.548-7.793-0.937-11.827-0.937-45.721 0-82.765 36.971-82.765 82.591s37.043 82.58 82.765 82.58 82.791-36.962 82.791-82.58z" />
<glyph unicode="&#xe6b9;" d="M28.421 108.8c-15.703 0-28.421 12.662-28.421 28.267v36.045c0 15.616 12.718 28.267 28.421 28.267 15.688 0 28.416-12.656 28.416-28.267v-36.045c0-15.606-12.728-28.267-28.416-28.267zM142.203 108.8c-15.688 0-28.416 12.662-28.416 28.267v72.089c0 15.616 12.723 28.267 28.416 28.267s28.421-12.656 28.421-28.267v-72.089c0-15.606-12.728-28.267-28.421-28.267zM255.995 108.8c-15.688 0-28.421 12.662-28.421 28.267v117.325c0 15.611 12.728 28.267 28.421 28.267s28.416-12.656 28.416-28.267v-117.325c0-15.606-12.723-28.267-28.416-28.267zM369.792 108.8c-15.698 0-28.421 12.662-28.421 28.267v145.597c0 15.616 12.718 28.268 28.421 28.268 15.693 0 28.416-12.651 28.416-28.267v-145.593c-0.005-15.611-12.723-28.272-28.416-28.272zM483.579 108.8c-15.693 0-28.416 12.662-28.416 28.267v173.865c0 15.616 12.718 28.267 28.416 28.267s28.421-12.651 28.421-28.267v-173.86c0-15.611-12.723-28.272-28.421-28.272z" />
<glyph unicode="&#xe6ba;" d="M417.28 454.031c0 14.346-11.673 25.969-26.087 25.969h-180.377c-14.398 0-26.082-11.623-26.082-25.969v-214.19l-76.867-43.75c-0.317-0.169-0.569-0.404-0.865-0.594-0.553-0.333-1.081-0.712-1.597-1.080-0.788-0.574-1.526-1.198-2.243-1.838-0.43-0.409-0.86-0.793-1.275-1.234-0.712-0.748-1.347-1.541-1.961-2.37-0.323-0.42-0.66-0.825-0.963-1.285-0.701-1.080-1.305-2.217-1.849-3.394-0.108-0.24-0.266-0.455-0.374-0.712-0.594-1.418-1.034-2.908-1.372-4.413-0.108-0.491-0.148-0.978-0.22-1.469-0.189-1.116-0.313-2.248-0.348-3.379-0.005-0.272-0.077-0.507-0.077-0.758v-179.589c0-14.351 11.684-25.964 26.081-25.964s26.082 11.618 26.082 25.964v153.61h128.22v-153.62c0-14.351 11.678-25.964 26.082-25.964 14.408 0 26.082 11.618 26.082 25.964v164.634l37.852 21.534v-138.066c0-14.341 11.684-25.969 26.082-25.969 14.408 0 26.087 11.627 26.087 25.969v179.589c0 1.623-0.19 3.205-0.476 4.741 0.286 1.546 0.476 3.129 0.476 4.751v222.884zM184.734 38.748c0-12.508 10.189-22.656 22.754-22.656 12.56 0 22.748 10.142 22.748 22.656v87.204h-45.501v-87.204z" />
<glyph unicode="&#xe6bb;" d="M478.797 131.876v41.513c0 52.823-42.983 95.805-95.8 95.805h-98.821v46.94c20.234 10.276 34.125 31.237 34.125 55.495 0 34.396-27.889 62.29-62.3 62.29s-62.3-27.894-62.3-62.29c0-24.258 13.891-45.22 34.125-55.495v-46.94h-98.821c-52.818 0-95.8-42.983-95.8-95.805v-41.513c-20.234-10.291-34.125-31.257-34.125-55.495 0-34.411 27.894-62.3 62.3-62.3 34.401 0 62.275 27.889 62.275 62.3 0 24.233-13.875 45.204-34.099 55.495v41.513c0 21.75 17.7 39.45 39.45 39.45h98.821v-80.962c-20.234-10.291-34.125-31.257-34.125-55.495 0-34.411 27.888-62.3 62.3-62.3s62.3 27.889 62.3 62.3c0 24.233-13.89 45.204-34.125 55.495v80.962h98.821c21.75 0 39.45-17.7 39.45-39.45v-41.513c-20.224-10.291-34.099-31.257-34.099-55.495 0-34.411 27.873-62.3 62.274-62.3 34.411 0 62.3 27.889 62.3 62.3 0 24.233-13.89 45.204-34.125 55.495z" />
<glyph unicode="&#xe6bc;" d="M187.648 187.863l-51.394-57.943v247.931c0 12.585-10.138 22.784-22.651 22.784-12.508 0-22.651-10.199-22.651-22.784v-247.931l-51.4 57.943c-8.32 9.401-22.651 10.235-31.98 1.833-9.334-8.371-10.158-22.769-1.822-32.169l90.951-102.553c4.29-4.839 10.445-7.613 16.901-7.613 6.462 0 12.611 2.775 16.901 7.613l90.941 102.553c8.335 9.401 7.511 23.798-1.822 32.169-9.334 8.402-23.66 7.567-31.975-1.833zM274.575 355.067h13.926c12.508 0 22.651 10.199 22.651 22.784s-10.137 22.784-22.651 22.784h-13.926c-12.514 0-22.656-10.199-22.656-22.784s10.142-22.784 22.656-22.784zM274.575 282.588h55.035c12.508 0 22.651 10.199 22.651 22.784s-10.137 22.784-22.651 22.784h-55.035c-12.514 0-22.656-10.199-22.656-22.784s10.142-22.784 22.656-22.784zM274.575 210.12h93.788c12.508 0 22.651 10.189 22.651 22.779 0 12.585-10.137 22.784-22.651 22.784h-93.788c-12.514 0-22.656-10.199-22.656-22.784 0-12.59 10.142-22.779 22.656-22.779zM274.575 137.63h141.952c12.514 0 22.656 10.199 22.656 22.784s-10.137 22.784-22.656 22.784h-141.952c-12.514 0-22.656-10.199-22.656-22.784s10.142-22.784 22.656-22.784zM489.349 110.73h-214.774c-12.514 0-22.656-10.199-22.656-22.784s10.137-22.784 22.656-22.784h214.774c12.508 0 22.651 10.199 22.651 22.784s-10.137 22.784-22.651 22.784z" />
<glyph unicode="&#xe6bd;" d="M438.364 209.521h-0.61c-6.43 0-13.159-1.546-22.031-4.009l-30.31-8.904c-9.493-2.765-15.611-10.762-15.611-20.281 0-11.070 9.482-20.286 20.51-20.286 2.447 0 5.822 0.62 8.259 1.229l16.527 4.306v-148.746c0-12.897 10.419-23.358 23.265-23.358 12.861 0 23.265 10.46 23.265 23.358v173.327c0 12.897-10.404 23.363-23.265 23.363zM486.589 436.163c-16.226 16.292-33.060 23.357-61.829 23.357-48.363 0-81.726-31.954-81.726-75.289v-0.615c0-43.638 29.993-69.458 76.524-69.458 18.668 0 33.060 5.847 43.464 14.75-3.067-28.877-17.147-48.855-43.464-48.855-13.471 0-23.265 3.067-34.279 9.518-3.676 2.15-7.649 3.692-12.252 3.692-12.242 0-22.344-9.221-22.344-21.509 0-8.606 4.598-15.375 11.018-19.364 15.923-9.835 32.758-15.36 56.637-15.36 60.907 0 93.66 47.642 93.66 117.392v0.615c0 42.404-10.107 65.766-25.411 81.126zM463.933 385.454c0-18.442-13.456-31.954-36.726-31.954-23.265 0-37.346 13.209-37.346 32.266v0.61c0 19.057 13.159 32.568 36.423 32.568 23.567 0 37.647-13.824 37.647-32.875v-0.615zM244.373 171.106l-66.928-75.31v322.248c0 16.358-13.204 29.619-29.496 29.619-16.297 0-29.501-13.261-29.501-29.619v-322.258l-66.939 75.32c-10.829 12.211-29.486 13.286-41.646 2.386-12.155-10.885-13.225-29.604-2.37-41.81l118.446-133.294c5.586-6.308 13.599-9.907 22.011-9.907s16.42 3.599 22.006 9.907l118.436 133.294c10.854 12.206 9.784 30.925-2.37 41.81-12.16 10.901-30.812 9.825-41.646-2.386z" />
<glyph unicode="&#xe6be;" d="M390.313 408.781c2.447 0 5.832 0.609 8.274 1.219l16.527 4.291v-148.265c0-12.857 10.414-23.28 23.25-23.28 12.861 0 23.281 10.424 23.281 23.28v172.774c0 12.856-10.419 23.281-23.281 23.281h-0.599c-6.43 0-13.154-1.531-22.031-3.989l-30.305-8.878c-9.493-2.76-15.626-10.726-15.626-20.214 0.005-11.038 9.498-20.219 20.51-20.219zM486.599 184.412c-16.22 16.24-33.070 23.286-61.829 23.286-48.374 0-81.726-31.851-81.726-75.044v-0.61c0-43.5 29.983-69.238 76.514-69.238 18.668 0 33.070 5.822 43.464 14.704-3.067-28.784-17.147-48.697-43.464-48.697-13.461 0-23.255 3.051-34.268 9.488-3.687 2.146-7.649 3.676-12.262 3.676-12.242 0-22.329-9.185-22.329-21.438 0-8.576 4.587-15.324 11.013-19.308 15.923-9.8 32.748-15.309 56.627-15.309 60.913-0.005 93.66 47.478 93.66 117.007v0.61c0 42.276-10.096 65.557-25.401 80.87zM463.949 133.868c0-18.386-13.461-31.851-36.741-31.851-23.25 0-37.335 13.168-37.335 32.159v0.61c0 18.995 13.159 32.466 36.413 32.466 23.572 0 37.658-13.778 37.658-32.773v-0.61zM244.377 175.821l-66.923-75.070v321.214c0 16.307-13.204 29.522-29.496 29.522-16.297 0-29.501-13.214-29.501-29.522v-321.224l-66.949 75.079c-10.829 12.17-29.476 13.24-41.646 2.375-12.145-10.849-13.225-29.512-2.37-41.677l118.457-132.864c5.576-6.288 13.599-9.877 22.011-9.877s16.41 3.589 22.006 9.877l118.441 132.864c10.854 12.165 9.769 30.827-2.375 41.677-12.17 10.865-30.817 9.794-41.651-2.375z" />
<glyph unicode="&#xe6bf;" d="M29.721 258.928c23.137-31.513 67.579-38.564 99.353-15.754 31.78 22.8 38.897 66.862 15.898 98.37-13.947 19.093-35.661 29.204-57.636 29.204-14.448 0-29.072-4.357-41.6-13.45-31.785-22.8-39.014-66.862-15.887-98.371 0.005 0 0.005 0-0.128 0zM198.559 86.031c-5.893 1.945-11.797 2.873-17.684 2.77-23.869 0-46.192-15.058-54.052-38.733-9.707-29.614 6.507-61.491 36.382-71.122 29.757-9.733 61.911 6.457 71.721 35.963 9.728 29.614-6.507 61.379-36.368 71.122zM82.227 190.613c-5.888 1.95-11.776 2.877-17.664 2.765-23.885 0-46.208-15.058-54.072-38.723-9.707-29.625 6.508-61.491 36.383-71.122 29.783-9.738 61.916 6.457 71.737 35.968 9.723 29.609-6.508 61.384-36.383 71.111zM333.296 404.721c0.133 41.395-33.767 75.146-75.673 75.279-41.758 0-75.791-33.469-75.924-75.003 0-41.538 33.746-75.29 75.653-75.29 41.892-0.133 75.945 33.475 75.945 75.013zM446.649 323.042c8.438 6.113 10.291 17.863 4.168 26.235-3.717 5.058-9.502 7.757-15.375 7.757-3.856 0-7.741-1.162-11.085-3.584-8.478-6.118-10.378-17.869-4.209-26.235 6.18-8.407 18.022-10.25 26.501-4.173zM475.884 242.934c-15.708 0-28.416-12.601-28.416-28.175 0-0.103 0-0.149 0-0.261 0-0.051 0-0.103 0-0.149-0.113-15.575 12.606-28.231 28.267-28.278 15.714-0.051 28.483 12.493 28.585 28.068 0 0.103 0 0.261 0 0.358 0 0.108 0 0.159 0 0.261 0 15.575-12.769 28.175-28.437 28.175zM328.935 61.978c-4.808 0-9.636-0.763-14.464-2.222-24.878-7.936-38.676-34.406-30.649-59.090 8.002-24.77 34.698-38.343 59.602-30.402 24.883 7.941 38.574 34.422 30.649 59.095-6.543 19.906-25.154 32.62-45.138 32.62zM457.38 121.19c-6.759 4.921-14.618 7.317-22.405 7.317-11.643 0-23.147-5.33-30.515-15.37-12.421-16.748-8.75-40.243 8.12-52.541 16.891-12.298 40.596-8.668 52.997 8.13 12.329 16.676 8.678 40.238-8.197 52.464z" />
<glyph unicode="&#xe6c0;" d="M461 480h-410.148c-28.175 0-50.852-25.2-50.852-56.202 0-31.048 22.677-56.151 50.852-56.151h410.148c28.175 0 51 25.098 51 56.151 0 31.001-22.825 56.202-51 56.202zM461 280.202h-410.148c-28.175 0-50.852-25.201-50.852-56.202s22.677-56.248 50.852-56.248h410.148c28.175 0 51 25.247 51 56.249s-22.825 56.202-51 56.202zM461 80.302h-410.148c-28.175 0-50.852-25.103-50.852-56.151 0-31.002 22.677-56.151 50.852-56.151h410.148c28.175 0 51 25.149 51 56.151 0 31.048-22.825 56.151-51 56.151z" />
<glyph unicode="&#xe6c1;" d="M493.655 205.66c10.132 0 18.345 8.217 18.345 18.345 0 10.122-8.212 18.34-18.345 18.34h-66.995c-1.122 10.486-3.236 20.664-6.154 30.505l61.86 25.841c9.349 3.901 13.752 14.633 9.851 23.987-3.911 9.334-14.659 13.762-23.998 9.846l-61.808-25.82c-4.874 8.837-10.512 17.173-16.814 24.981l47.416 47.406c7.163 7.163 7.163 18.77 0 25.933-7.163 7.153-18.775 7.153-25.938 0l-47.411-47.411c-8.074 6.507-16.702 12.37-25.892 17.362l25.436 61.916c3.84 9.36-0.63 20.086-10.005 23.931-9.329 3.835-20.075-0.65-23.931-10.005l-25.472-62.019c-9.523 2.76-19.353 4.808-29.497 5.888v66.98c0 10.122-8.212 18.334-18.334 18.334-10.132 0-18.35-8.213-18.35-18.334v-66.985c-10.486-1.132-20.665-3.226-30.505-6.149l-25.81 61.788c-3.911 9.334-14.659 13.752-24.002 9.846-9.344-3.901-13.752-14.633-9.846-23.987l25.79-61.742c-8.837-4.874-17.173-10.526-24.986-16.809l-47.38 47.39c-7.168 7.153-18.775 7.153-25.938 0-7.168-7.163-7.168-18.77 0-25.933l47.396-47.385c-6.523-8.080-12.391-16.717-17.362-25.887l-61.88 25.395c-9.385 3.825-20.086-0.64-23.931-10.005-3.845-9.354 0.63-20.086 10.005-23.926l61.972-25.447c-2.76-9.529-4.802-19.369-5.888-29.491h-66.903c-10.137 0.005-18.35-8.213-18.35-18.334 0-10.127 8.213-18.345 18.35-18.345h66.908c1.116-10.506 3.236-20.7 6.149-30.551l-61.788-25.815c-9.354-3.911-13.762-14.633-9.851-23.998 2.934-7.030 9.754-11.264 16.927-11.264 2.361 0 4.757 0.45 7.060 1.413l61.773 25.805c4.864-8.837 10.506-17.173 16.809-24.97l-47.376-47.365c-7.168-7.163-7.168-18.765 0-25.928 3.579-3.579 8.279-5.376 12.969-5.376s9.39 1.797 12.969 5.376l47.36 47.355c8.064-6.498 16.681-12.36 25.846-17.341l-25.405-61.89c-3.845-9.354 0.625-20.086 10.005-23.926 2.263-0.932 4.633-1.372 6.948-1.372 7.225 0 14.059 4.286 16.973 11.387l25.452 61.973c9.538-2.76 19.385-4.813 29.537-5.888v-66.944c0-10.122 8.218-18.34 18.35-18.34 10.122 0 18.334 8.217 18.334 18.34v66.944c10.501 1.122 20.695 3.236 30.546 6.159l25.8-61.778c2.949-7.040 9.764-11.274 16.937-11.274 2.35 0 4.757 0.45 7.065 1.423 9.344 3.906 13.752 14.638 9.851 23.993l-25.795 61.752c8.837 4.874 17.178 10.526 24.986 16.809l47.38-47.375c3.584-3.579 8.279-5.376 12.969-5.376 4.695 0 9.385 1.797 12.969 5.376 7.163 7.163 7.163 18.765 0 25.928l-47.396 47.401c6.502 8.064 12.349 16.681 17.346 25.841l61.916-25.416c2.288-0.937 4.634-1.372 6.953-1.372 7.219 0 14.070 4.281 16.983 11.377 3.845 9.354-0.635 20.086-10.014 23.931l-62.034 25.472c2.765 9.538 4.818 19.369 5.893 29.512h67z" />
<glyph unicode="&#xe6c2;" d="M189.982 362.88h-42.578c-20.782 0-37.781-16.988-37.781-37.806v-42.558c0-20.782 16.998-37.791 37.781-37.791h42.578c20.772 0 37.78 17.009 37.78 37.791v42.558c0 20.818-17.008 37.806-37.781 37.806zM189.982 194.811h-42.578c-20.782 0-37.781-16.988-37.781-37.811v-42.553c0-20.782 16.998-37.791 37.781-37.791h42.578c20.772 0 37.78 17.009 37.78 37.791v42.553c0 20.818-17.008 37.811-37.781 37.811zM364.595 194.811h-42.567c-20.782 0-37.791-16.988-37.791-37.811v-42.553c0-20.782 17.009-37.791 37.791-37.791h42.567c20.782 0 37.791 17.009 37.791 37.791v42.553c0 20.818-17.009 37.811-37.791 37.811zM403.328 480h-294.646c-59.934 0-108.682-48.758-108.682-108.682v-294.64c0-59.935 48.748-108.677 108.682-108.677h294.651c59.925 0 108.667 48.743 108.667 108.682v294.635c0 59.925-48.743 108.682-108.672 108.682zM464.758 76.682c0-33.889-27.55-61.44-61.43-61.44h-294.646c-33.879 0-61.44 27.55-61.44 61.44v294.635c0 33.869 27.561 61.44 61.44 61.44h294.651c33.879 0 61.43-27.571 61.43-61.44v-294.635zM364.595 362.88h-42.567c-20.782 0-37.791-16.988-37.791-37.806v-42.558c0-20.782 17.009-37.791 37.791-37.791h42.567c20.782 0 37.791 17.009 37.791 37.791v42.558c0 20.818-17.009 37.806-37.791 37.806z" />
<glyph unicode="&#xe6c3;" d="M436.659 480h-361.318c-41.538 0-75.341-33.802-75.341-75.32v-361.36c0-41.538 33.802-75.32 75.341-75.32h361.318c41.549 0 75.341 33.782 75.341 75.32v361.36c0 41.518-33.792 75.32-75.341 75.32zM225.244 104.125c0-22.651-18.504-41.159-41.129-41.159h-46.382c-22.626 0-41.144 18.509-41.144 41.159v46.326c0 22.666 18.519 41.195 41.144 41.195h46.382c22.625 0 41.129-18.529 41.129-41.195v-46.326zM225.244 287.171c0-22.646-18.504-41.154-41.129-41.154h-46.382c-22.626 0-41.144 18.509-41.144 41.154v46.326c0 22.672 18.519 41.18 41.144 41.18h46.382c22.625 0 41.129-18.509 41.129-41.18v-46.326zM415.411 104.125c0-22.651-18.509-41.159-41.134-41.159h-46.382c-22.625 0-41.139 18.509-41.139 41.159v46.326c0 22.666 18.514 41.195 41.139 41.195h46.382c22.625 0 41.134-18.529 41.134-41.195v-46.326zM415.411 287.171c0-22.646-18.509-41.154-41.134-41.154h-46.382c-22.625 0-41.139 18.509-41.139 41.154v46.326c0 22.672 18.514 41.18 41.139 41.18h46.382c22.625 0 41.134-18.509 41.134-41.18v-46.326z" />
<glyph unicode="&#xe6c4;" d="M227.768 458.322l-169.436 21.258c-2.135 0.272-4.311 0.42-6.462 0.42-13.65 0-26.885-5.427-36.659-15.202-11.335-11.33-16.794-27.254-14.812-43.141l21.161-168.638c1.264-11.443 6.323-22.441 14.894-31.001l238.807-238.822c10.142-10.127 23.414-15.196 36.69-15.196 13.261 0 26.567 5.069 36.675 15.175l148.173 148.162c20.27 20.255 20.27 53.11 0 73.365l-237.845 237.814c-8.115 8.561-19.056 14.28-31.186 15.806zM138.486 387.728c0-25.508-20.706-46.208-46.239-46.224-25.538 0.010-46.213 20.711-46.213 46.224-0.026 25.538 20.675 46.233 46.239 46.233 25.508 0 46.213-20.726 46.213-46.233z" />
<glyph unicode="&#xe6c5;" d="M387.399 208.947l-185.472 185.498c-6.328 6.671-14.858 11.136-24.32 12.324l-132.126 16.589c-1.664 0.21-3.353 0.322-5.033 0.322-10.645 0-20.966-4.234-28.585-11.853-8.837-8.837-13.097-21.258-11.546-33.649l16.497-131.533c0.983-8.929 4.931-17.506 11.612-24.182l186.225-186.281c7.9-7.911 18.253-11.863 28.601-11.863 10.343 0 20.715 3.952 28.6 11.837l115.543 115.564c15.81 15.8 15.81 41.426 0.005 57.226zM71.926 315.648c-19.912 0.010-36.039 16.159-36.039 36.055-0.016 19.917 16.123 36.060 36.055 36.060 19.897 0 36.039-16.164 36.039-36.060 0.005-19.896-16.138-36.045-36.055-36.055zM500.147 208.947l-185.467 185.498c-6.323 6.671-14.858 11.136-24.315 12.324l-51.794 6.502 176.553-176.584c15.048-15.043 23.347-35.067 23.347-56.356 0-21.284-8.295-41.308-23.347-56.346l-87.731-87.813c7.911-7.9 18.263-11.853 28.611-11.853 10.342 0 20.721 3.952 28.601 11.837l115.538 115.564c15.81 15.8 15.81 41.426 0.005 57.226z" />
<glyph unicode="&#xe6c6;" d="M451.589 423.68h-391.178c-33.31 0-60.411-27.079-60.411-60.365v-278.625c0-33.285 27.1-60.37 60.411-60.37h391.178c33.31 0 60.411 27.085 60.411 60.37v278.625c0 33.285-27.1 60.365-60.411 60.365zM465.531 84.69c0-7.567-6.38-13.931-13.942-13.931h-391.178c-7.557 0-13.942 6.364-13.942 13.932v145.817h419.062v-145.817zM465.531 315.049h-419.062v48.266c0 7.557 6.385 13.931 13.942 13.931h391.178c7.562 0 13.942-6.374 13.942-13.931v-48.266zM112.594 91.366c18.37 0 33.28 14.873 33.28 33.27 0 18.355-14.91 33.264-33.28 33.264-18.391 0-33.29-14.909-33.29-33.264 0-18.396 14.899-33.27 33.29-33.27zM201.328 91.366c18.375 0 33.28 14.873 33.28 33.27 0 18.355-14.905 33.264-33.28 33.264-18.381 0-33.285-14.909-33.285-33.264 0-18.396 14.905-33.27 33.285-33.27z" />
<glyph unicode="&#xe6c7;" d="M450.786 135.982h-389.57c-33.807 0-61.215-27.295-61.215-60.954s27.407-60.949 61.215-60.949h389.57c33.808 0 61.214 27.289 61.214 60.949s-27.408 60.954-61.214 60.954zM37.668 75.029c0 12.913 10.557 23.44 23.547 23.44h169.631c-3.026-7.214-4.706-15.14-4.706-23.44 0-8.305 1.685-16.226 4.706-23.445h-169.631c-12.989 0-23.547 10.526-23.547 23.445zM450.786 284.948h-389.57c-33.807 0-61.215-27.289-61.215-60.948s27.407-60.949 61.215-60.949h389.57c33.808 0 61.214 27.289 61.214 60.949s-27.408 60.948-61.214 60.948zM37.668 224c0 12.928 10.557 23.44 23.547 23.44h94.295c-3.026-7.214-4.71-15.125-4.71-23.44s1.685-16.226 4.71-23.445h-94.295c-12.989 0-23.547 10.517-23.547 23.445zM61.215 312.023h389.57c33.813 0 61.214 27.284 61.214 60.948 0 33.659-27.407 60.949-61.214 60.949h-389.57c-33.807 0-61.215-27.29-61.215-60.949 0-33.664 27.407-60.948 61.215-60.948zM61.215 396.411h226.135c-3.021-7.214-4.711-15.135-4.711-23.44s1.69-16.226 4.711-23.444h-226.135c-12.989 0-23.547 10.521-23.547 23.444s10.557 23.44 23.547 23.44z" />
<glyph unicode="&#xe6c8;" d="M497.598 98.361l-62.572 62.572c-9.288 9.298-21.652 14.408-34.78 14.408-13.138 0-25.498-5.11-34.78-14.408l-36.941-36.941-172.539 172.529 36.941 36.946c19.169 19.179 19.169 50.381 0 69.56l-62.571 62.577c-9.15 9.149-21.811 14.397-34.76 14.397-1.177 0-2.35-0.036-3.528-0.133-14.198-0.983-27.269-8.115-35.861-19.548l-46.434-61.978-0.569-0.85c-1.142-1.577-2.171-3.159-3.108-4.864-0.21-0.384-0.537-1.029-0.84-1.695-1.689-3.394-2.949-6.794-3.789-10.23-0.169-0.573-0.338-1.142-0.461-1.695-0.313-1.536-0.502-3.026-0.67-4.526l-0.072-0.737c-0.102-0.983-0.169-1.946-0.22-2.939-0.051-1.746-0.071-3.328 0.021-4.915 0.071-1.296 0.261-2.58 0.461-3.891 0.359-2.519 0.798-4.567 1.383-6.554 0.471-1.597 0.963-3.174 1.572-4.72 0.2-0.686 0.42-1.301 0.702-1.925l0.748-1.802c15.201-37.315 60.211-133.791 149.689-223.268 89.38-89.36 186.522-135.143 224.128-150.692l1.762-0.722c0.62-0.281 1.341-0.548 2.099-0.778 1.802-0.712 3.369-1.209 4.962-1.669 1.731-0.481 3.44-0.86 5.171-1.152 1.69-0.292 3.379-0.533 5.058-0.64 0.768-0.062 1.608-0.082 2.452-0.082 0.768 0 1.541 0.021 2.309 0.062 1.050 0.021 2.243 0.108 3.451 0.24 1.541 0.159 3.149 0.348 4.711 0.681 0.748 0.149 1.521 0.368 2.299 0.579l0.743 0.21c2.99 0.819 5.75 1.858 8.438 3.17 1.009 0.45 1.71 0.798 2.411 1.162 1.649 0.911 3.098 1.869 4.541 2.877 0.22 0.118 0.839 0.522 1.387 0.962l61.757 46.269c11.418 8.54 18.56 21.601 19.579 35.85 1.008 14.254-4.194 28.211-14.279 38.303z" />
<glyph unicode="&#xe6c9;" d="M109.875 480h-74.204c-19.702 0-35.671-15.974-35.671-35.666v-74.194c0-19.707 15.97-35.666 35.671-35.666h74.204c19.691 0 35.666 15.964 35.666 35.666v74.194c0 19.691-15.975 35.666-35.666 35.666zM293.104 480h-74.209c-19.691 0-35.656-15.974-35.656-35.666v-74.194c0-19.707 15.964-35.666 35.656-35.666h74.209c19.692 0 35.656 15.964 35.656 35.666v74.194c0 19.691-15.964 35.666-35.656 35.666zM476.329 480h-74.204c-19.692 0-35.666-15.974-35.666-35.666v-74.194c0-19.707 15.974-35.666 35.666-35.666h74.204c19.697 0 35.671 15.964 35.671 35.666v74.194c0 19.691-15.974 35.666-35.671 35.666zM109.875 296.77h-74.204c-19.702 0-35.671-15.974-35.671-35.666v-74.21c0-19.692 15.97-35.666 35.671-35.666h74.204c19.691 0 35.666 15.974 35.666 35.666v74.209c0 19.691-15.975 35.666-35.666 35.666zM293.104 296.77h-74.209c-19.691 0-35.656-15.974-35.656-35.666v-74.21c0-19.692 15.964-35.666 35.656-35.666h74.209c19.692 0 35.656 15.974 35.656 35.666v74.209c0 19.691-15.964 35.666-35.656 35.666zM476.329 296.77h-74.204c-19.692 0-35.666-15.974-35.666-35.666v-74.21c0-19.692 15.974-35.666 35.666-35.666h74.204c19.697 0 35.671 15.974 35.671 35.666v74.209c0 19.691-15.974 35.666-35.671 35.666zM109.875 113.541h-74.204c-19.702 0-35.671-15.974-35.671-35.666v-74.204c0-19.697 15.97-35.671 35.671-35.671h74.204c19.691 0 35.666 15.974 35.666 35.671v74.204c0 19.692-15.975 35.666-35.666 35.666zM293.104 113.541h-74.209c-19.691 0-35.656-15.974-35.656-35.666v-74.204c0-19.697 15.964-35.671 35.656-35.671h74.209c19.692 0 35.656 15.974 35.656 35.671v74.204c0 19.692-15.964 35.666-35.656 35.666zM476.329 113.541h-74.204c-19.692 0-35.666-15.974-35.666-35.666v-74.204c0-19.697 15.974-35.671 35.666-35.671h74.204c19.697 0 35.671 15.974 35.671 35.671v74.204c0 19.692-15.974 35.666-35.671 35.666z" />
<glyph unicode="&#xe6ca;" d="M421.125 307.753c0 0.143 0 0.143-0.077 0.143-6.298 8.105-13.245 15.78-20.746 22.876-0.368 0.286-0.574 0.574-0.947 0.86-7.301 6.882-15.099 13.266-23.327 19.077-0.205 0.143-0.348 0.215-0.574 0.358-7.875 5.591-16.302 10.542-24.976 14.914-1.572 0.717-3.072 1.434-4.726 2.227-16.594 7.89-34.488 13.409-53.161 16.778v21.581h17.464c20.25 0 36.623 16.425 36.623 36.716 0 20.296-16.374 36.711-36.623 36.711h-106.122c-20.25 0-36.644-16.42-36.644-36.711s16.394-36.716 36.644-36.716h15.396v-21.581c-18.693-3.374-36.638-8.893-53.238-16.778-1.582-0.788-3.077-1.433-4.649-2.227-8.673-4.372-17.121-9.323-25.052-14.914-0.22-0.144-0.297-0.215-0.446-0.358-8.218-5.739-16.020-12.19-23.394-19.077-0.353-0.363-0.63-0.574-0.927-0.86-7.522-7.096-14.377-14.7-20.674-22.805-0.077 0-0.148-0.071-0.148-0.215-27.919-35.707-44.723-80.528-44.723-129.434 0-116.106 93.967-210.319 209.874-210.319 115.927 0 209.966 94.213 209.966 210.32 0 48.906-16.896 93.726-44.795 129.434zM355.062 152.079h-99.108c-14.448 0-26.173 11.755-26.173 26.24v130.156c0 14.484 11.725 26.245 26.173 26.245 14.464 0 26.194-11.761 26.194-26.245v-103.916h72.909c14.546 0 26.194-11.684 26.194-26.24 0.005-14.485-11.648-26.24-26.189-26.24z" />
<glyph unicode="&#xe6cb;" d="M464.517 238.357c-3.123 2.222-6.825 3.379-10.578 3.379-1.392 0-2.796-0.154-4.178-0.482l-212.030-49.889 0.020 69.775 0.025 150.021c0.010 5.258-2.227 10.25-6.113 13.747-3.379 3.031-7.746 4.69-12.237 4.69-0.681 0-1.362-0.046-2.048-0.108-116.624-13.168-204.58-112.036-204.58-229.965 0-127.657 103.403-231.526 230.487-231.526s230.487 103.87 230.487 231.526c0 7.89-0.517 16.098-1.598 25.835-0.589 5.238-3.374 9.974-7.659 12.994zM325.228 479.462l-0.031 0.026c-7.158 1.392-14.577-0.092-20.649-4.163-6.067-4.070-10.286-10.424-11.694-17.607l-0.041-196.578 190.228 44.729c6.651 3.031 11.822 8.581 14.397 15.457 2.58 6.881 2.325 14.48-0.691 21.161-31.923 70.686-96.046 121.902-171.52 136.976z" />
<glyph unicode="&#xe6cc;" d="M295.312-11.52c-94.951 0-177.997 32.22-177.997 71.993 0 32.384 55.117 59.801 126.956 68.839v52.854c16.953-1.060 33.997-1.587 51.042-1.587 17.091 0 34.135 0.527 51.129 1.587v-52.854c71.788-9.042 126.904-36.454 126.904-68.839 0.005-39.772-83.041-71.993-178.033-71.993zM295.312 235.412c-157.476 0-295.312 49.766-295.312 111.175 0 61.384 137.835 111.155 295.312 111.155 157.563 0 295.358-49.772 295.358-111.155 0-61.409-137.789-111.175-295.358-111.175zM1010.279 190.884c2.171 2.192 4.132 4.623 5.862 7.199 0.763 1.162 1.29 2.406 1.936 3.61 0.835 1.485 1.71 2.923 2.35 4.531 0.65 1.546 1.019 3.195 1.475 4.798 0.384 1.31 0.922 2.616 1.213 3.998 0.578 3.062 0.891 6.139 0.886 9.242-0.010 3.082-0.333 6.185-0.932 9.216-0.302 1.387-0.84 2.683-1.234 4.004-0.441 1.618-0.84 3.236-1.495 4.792-0.65 1.593-1.531 3.026-2.37 4.506-0.655 1.178-1.183 2.432-1.956 3.609-1.741 2.585-3.717 4.992-5.918 7.163l-130.975 130.37c-18.452 18.386-48.302 18.314-66.683-0.159-9.191-9.216-13.773-21.335-13.747-33.357 0.030-12.083 4.669-24.135 13.906-33.331l50.319-50.033-147.538-0.353c-26.025-0.062-47.094-21.228-47.033-47.253 0.062-26.076 21.227-47.125 47.252-47.063l147.538 0.353-50.078-50.284c-9.191-9.241-13.747-21.34-13.721-33.403 0.030-12.042 4.644-24.135 13.88-33.29 18.473-18.381 48.343-18.309 66.683 0.159l130.381 130.975z" horiz-adv-x="1024" />
<glyph unicode="&#xe6cd;" d="M448.185 385.782l-80.22-0.809-0.169 17.73-0.144 14.147c-0.635 63.749-32.707 63.426-64.798 63.104-32.077-0.313-32.077-0.313-96.246-0.947-64.174-0.645-63.856-32.522-63.539-64.389 0.113-10.957 0.143-14.382 0.143-14.147l0.179-17.731-80.21-0.793c-8.816-0.087-15.969-7.296-15.882-16.077l0.313-31.872c0.102-8.776 7.378-15.867 16.205-15.769 8.822 0.082 16.113-7.004 16.205-15.785l3.174-318.669c0.092-8.776 7.368-15.856 16.2-15.769l320.829 3.19c8.832 0.103 15.964 7.317 15.887 16.098l-3.18 318.674c-0.087 8.775 7.065 16.010 15.882 16.092 8.827 0.097 15.979 7.317 15.892 16.092l-0.313 31.882c-0.103 8.771-7.399 15.836-16.21 15.749zM207.237 415.262l96.256 0.958 0.317-31.882-96.256-0.953-0.317 31.877zM178.811 48.466c0.092-8.791-7.076-16-15.887-16.087-8.827-0.092-16.113 6.974-16.205 15.76l-2.345 236.262c-0.097 8.776 7.055 16.010 15.887 16.092 8.806 0.098 16.107-6.994 16.195-15.769l2.355-236.257zM275.062 49.418c0.087-8.781-7.060-15.995-15.887-16.077-8.827-0.103-16.113 6.974-16.205 15.754l-2.345 236.268c-0.102 8.775 7.055 16 15.882 16.092 8.822 0.087 16.108-6.994 16.2-15.774l2.355-236.262zM371.308 50.386c0.087-8.796-7.065-15.995-15.882-16.098-8.812-0.082-16.108 6.983-16.2 15.769l-2.355 236.273c-0.082 8.775 7.065 15.995 15.887 16.082 8.812 0.092 16.108-6.994 16.19-15.769l2.361-236.258z" />
<glyph unicode="&#xe6ce;" d="M499.067 134l-182.226 262.948c-13.788 19.804-36.629 31.851-60.877 31.851s-46.996-12.048-60.877-31.851l-182.129-262.948c-15.416-22.507-17.3-51.497-4.48-75.684 12.733-24.034 37.924-39.117 65.234-39.117h364.498c27.315 0 52.388 15.084 65.351 39.117 12.708 24.187 10.936 53.171-4.495 75.684z" />
<glyph unicode="&#xe6cf;" d="M439.844 82.841c0-26.793-21.719-48.512-48.512-48.512s-48.512 21.719-48.512 48.512c0 26.793 21.719 48.512 48.512 48.512s48.512-21.719 48.512-48.512zM489.651 413.671h-293.652c-12.345 0-22.349-10.005-22.349-22.349v-46.346h-49.398c-5.929 0-11.612-2.361-15.805-6.548l-101.868-101.888c-4.066-4.045-6.579-9.646-6.579-15.826v-123.049c0-12.344 10.005-22.349 22.349-22.349h42.819c-0.246 2.478-0.384 4.992-0.384 7.526 0 41.538 33.797 75.331 75.331 75.331 41.529 0 75.32-33.792 75.32-75.331 0-2.534-0.128-5.043-0.384-7.526h101.335c-0.256 2.478-0.384 4.992-0.384 7.526 0 41.538 33.792 75.331 75.33 75.331 41.534 0 75.32-33.792 75.32-75.331 0-2.534-0.138-5.043-0.384-7.526h23.383c12.344 0 22.349 10.005 22.349 22.349v293.658c0 12.344-10.005 22.349-22.349 22.349zM173.65 243.067h-97.341l57.196 57.206h40.146v-57.206zM188.626 82.841c0-26.793-21.72-48.512-48.512-48.512s-48.512 21.719-48.512 48.512c0 26.793 21.719 48.512 48.512 48.512s48.512-21.719 48.512-48.512z" />
<glyph unicode="&#xe6d0;" d="M509.885 165.934c-47.452 129.762-193.577 197.447-325.832 150.866-41.488-14.613-77.584-39.040-105.707-70.605l-7.726 34.442c-4.24 18.913-23.286 30.879-42.573 26.701-19.271-4.163-31.452-22.866-27.207-41.79l27.11-120.822c0.092-0.414 0.297-0.804 0.399-1.214 0.369-1.5 0.891-2.923 1.449-4.362 0.154-0.404 0.282-0.839 0.471-1.239 3.804-8.827 11.152-16.133 21.11-19.507 3.87-1.31 7.803-1.925 11.669-1.925 4.956 0 9.789 1.106 14.233 3.010l116.332 25.139c19.267 4.158 31.458 22.876 27.197 41.784-4.234 18.903-23.27 30.899-42.567 26.706l-42.388-9.159c19.666 20.782 44.278 36.946 72.35 46.833 95.13 33.5 200.3-15.186 234.44-108.554 6.661-18.233 27.141-27.704 45.701-21.156s28.206 26.629 21.54 44.851z" />
<glyph unicode="&#xe6d1;" d="M221.143 480c0.456 0 0.825 0 1.296 0 56.34 0 102.574-45.517 103.194-102.046 0.738-61.138-48.461-140.708-101.56-141.343-0.22 0-0.405 0-0.655 0-53.023 0-103.542 78.024-104.397 138.977-0.62 56.919 45.189 103.803 102.124 104.412zM226.673 1.505c-93.712-0.793-168.417 25.81-194.621 36.546l-0.645 74.46c-0.594 70.436 18.75 84.706 36.9 92.621 11.623 5.028 30.157 10.389 48.112 15.544 16.199 4.608 28.6 8.269 38.211 11.806 20.423-17.434 44.068-28.339 68.793-28.339h0.994c25.067 0.266 48.747 11.714 69.1 29.783 9.861-3.523 22.902-7.086 40.146-11.653 17.792-4.7 36.075-9.656 47.637-14.423 11.776-4.859 23.44-11.95 30.797-33.116-6.077 2.268-12.636 3.563-19.492 3.563-30.919 0-56.059-25.139-56.059-56.059v-10.173h-10.204c-30.92 0-56.059-25.154-56.059-56.043 0-20.798 11.418-38.953 28.272-48.63-22.108-3.364-46.208-5.652-71.88-5.888zM458.834 34.248h-44.473v-44.478c0-12.027-9.738-21.775-21.765-21.775s-21.76 9.748-21.76 21.776v44.478h-44.503c-12.027 0-21.76 9.748-21.76 21.776 0 11.996 9.733 21.745 21.76 21.745h44.503v44.478c0 12.027 9.733 21.776 21.76 21.776s21.765-9.748 21.765-21.776v-44.478h44.472c12.027 0 21.776-9.748 21.776-21.745 0-12.022-9.748-21.776-21.776-21.776z" />
<glyph unicode="&#xe6d2;" d="M299.801 88.023c0.021 16.005 6.308 31.043 17.71 42.332 11.413 11.331 26.594 17.562 42.736 17.562s31.309-6.231 42.742-17.52l6.385-6.359 6.349 6.318c5.524 5.474 11.966 9.764 18.949 12.713-6.457 37.781-21.704 47.76-37.151 54.077-12.13 4.971-31.283 10.107-49.95 14.997-18.053 4.716-31.739 8.423-42.076 12.083-21.33-18.785-46.162-30.658-72.433-30.956h-1.060c-25.912 0-50.698 11.331-72.089 29.481-10.087-3.707-23.086-7.495-40.079-12.298-18.816-5.346-38.257-10.906-50.427-16.128-19.047-8.253-39.312-23.076-38.672-96.276l0.676-77.409c27.463-11.161 105.774-38.784 204.032-37.99 22.769 0.21 44.39 1.986 64.568 4.634-0.932 16.425 4.864 33.183 17.5 45.696l6.375 6.318-6.395 6.354c-11.408 11.295-17.69 26.368-17.69 42.373zM231.998 227.011c0.276 0 0.466 0 0.702 0 55.67 0.676 107.243 83.389 106.476 146.939-0.661 58.752-49.127 106.050-108.196 106.050-0.487 0-0.891 0-1.362 0-59.678-0.635-107.699-49.362-107.044-108.534 0.891-63.34 53.862-144.456 109.424-144.456zM441.615 39.301l32.962 32.722c8.919 8.806 8.94 23.127 0.021 31.969-4.459 4.418-10.306 6.61-16.144 6.61s-11.653-2.192-16.113-6.61l-32.967-32.681-33.004 32.727c-4.439 4.377-10.281 6.61-16.118 6.61-5.847 0-11.678-2.233-16.118-6.651-8.919-8.801-8.94-23.127-0.021-31.969l32.983-32.722-32.962-32.686c-0.993-1.003-1.863-2.063-2.658-3.2-0.399-0.584-0.702-1.219-1.060-1.813-0.281-0.507-0.574-1.009-0.809-1.557-0.384-0.845-0.722-1.731-0.998-2.616-0.087-0.251-0.144-0.461-0.21-0.717-0.302-1.055-0.533-2.104-0.681-3.2v0c-0.87-6.738 1.209-13.732 6.416-18.908 4.429-4.377 10.265-6.61 16.108-6.61 5.822 0 11.678 2.233 16.144 6.651l32.962 32.681 32.968-32.681c4.459-4.418 10.296-6.651 16.133-6.651s11.684 2.233 16.144 6.651c8.899 8.806 8.899 23.163 0 31.964l-32.978 32.686z" />
<glyph unicode="&#xe6d3;" d="M441.584 410.88h-371.17c-38.727 0-70.421-31.365-70.421-69.704v-234.358c0-38.334 31.688-69.698 70.421-69.698h371.17c38.718 0 70.421 31.365 70.421 69.698v234.358c0 38.339-31.698 69.704-70.421 69.704zM317.609 202.245l-80.205-45.849c-3.932-2.248-8.31-3.369-12.702-3.369-4.373 0-8.755 1.122-12.688 3.369-7.859 4.485-12.697 12.784-12.697 21.755v91.678c0 8.99 4.839 17.29 12.697 21.776 7.849 4.5 17.531 4.5 25.39 0l80.205-45.84c7.859-4.48 12.697-12.774 12.697-21.765 0.005-8.976-4.839-17.28-12.697-21.755z" />
<glyph unicode="&#xe6d4;" d="M445.967 311.706v-7.45c0-59.494-48.399-107.894-107.889-107.894h-53.683v-60.068c33.843-11.76 58.178-43.853 58.178-81.721 0-47.8-38.748-86.574-86.574-86.574-47.815 0-86.574 38.774-86.574 86.574 0 37.868 24.335 69.959 58.178 81.721v60.068h-53.678c-59.489 0-107.888 48.399-107.888 107.894v7.45c-33.853 11.781-58.189 43.853-58.189 81.721 0 47.826 38.764 86.574 86.579 86.574 47.821 0 86.574-38.748 86.574-86.574 0-37.868-24.346-69.939-58.184-81.721v-7.45c0-28.17 22.928-51.108 51.102-51.108h164.152c28.18 0 51.103 22.938 51.103 51.108v7.45c-33.849 11.781-58.183 43.853-58.183 81.721 0 47.826 38.758 86.574 86.579 86.574 47.815 0 86.579-38.748 86.579-86.574 0-37.868-24.336-69.939-58.183-81.721z" />
<glyph unicode="&#xe6d5;" d="M376.935-4.158h-16.61v73.964c15.068 8.094 44.155 27.904 44.155 60.211 0 34.55-4.782 62.479-4.982 63.657-1.168 6.687-6.994 11.556-13.814 11.556h-78.75c-6.81 0-12.656-4.869-13.803-11.556-0.21-1.173-4.976-29.107-4.976-63.657 0-32.307 29.077-52.117 44.144-60.211v-73.964h-16.61c-7.741 0-14.014-6.231-14.014-13.921s6.272-13.921 14.014-13.921h61.245c7.741 0 14.019 6.231 14.019 13.921s-6.277 13.921-14.019 13.921zM160.522 451.502h36.265c7.931 0 14.357 6.375 14.357 14.244-0.005 7.859-6.43 14.254-14.357 14.254h-36.265c-7.926 0-14.346-6.395-14.346-14.259s6.421-14.238 14.346-14.238zM211.138 324.183v100.828c0 7.875-6.425 14.259-14.357 14.259h-36.265c-7.926 0-14.346-6.385-14.346-14.259v-100.71c-1.065-2.048-5.018-6.436-7.962-9.666-12.222-13.517-30.689-33.946-30.689-68.495v-263.88c0-7.885 6.43-14.259 14.356-14.259h113.546c7.931 0 14.357 6.375 14.357 14.259v263.88c0 34.637-18.411 54.892-30.597 68.281-2.995 3.287-7.024 7.721-8.043 9.764z" />
<glyph unicode="&#xe6d6;" d="M429.42 454.4c-45.619 0-82.591-37.043-82.591-82.765 0-4.034 0.389-7.966 0.937-11.832l-91.766-61.118-91.766 61.056c0.553 3.912 0.927 7.834 0.927 11.894 0 45.721-36.966 82.765-82.56 82.765-45.63 0-82.601-37.043-82.601-82.765 0-45.726 36.971-82.79 82.601-82.79 17.91 0 34.447 5.79 47.964 15.478l93.071-61.86v-89.918c-29.527-12.611-50.233-41.943-50.233-76.155 0-45.726 36.976-82.791 82.596-82.791s82.591 37.063 82.591 82.791c0 34.212-20.69 63.544-50.227 76.155v89.938l93.036 61.88c13.548-9.728 30.085-15.519 48.020-15.519 45.619 0 82.581 37.064 82.581 82.791 0 45.721-36.962 82.765-82.581 82.765z" />
<glyph unicode="&#xe6d7;" d="M256.005 221.261c-41.257 0-80.149-18.104-106.731-49.654-8.847-10.506-7.49-26.178 3.031-35.010 10.506-8.832 26.199-7.47 35.036 3.031 17.106 20.322 42.132 31.959 68.664 31.959s51.553-11.638 68.659-31.959c4.915-5.847 11.95-8.853 19.046-8.853 5.652 0 11.33 1.894 15.99 5.822 10.522 8.832 11.868 24.505 3.026 35.010-26.578 31.55-65.469 49.654-106.721 49.654zM255.995 314.455c-69.683 0-135.132-30.817-179.543-84.531-8.75-10.573-7.255-26.24 3.333-34.975 4.638-3.82 10.245-5.678 15.831-5.678 7.147 0 14.27 3.067 19.184 9.022 34.928 42.24 86.395 66.483 141.194 66.483 54.18 0 105.252-23.772 140.135-65.224 8.848-10.522 24.54-11.858 35.051-3.026s11.868 24.489 3.036 34.985c-44.365 52.726-109.327 82.944-178.222 82.944zM506.158 291.927c-62.285 73.968-153.457 116.393-250.163 116.393-96.691 0-187.863-42.425-250.158-116.373-8.837-10.501-7.495-26.183 3.026-35.005 10.506-8.832 26.194-7.475 35.036 3.021 52.818 62.72 130.135 98.683 212.096 98.683 81.976 0 159.283-35.978 212.091-98.704 4.925-5.837 11.955-8.847 19.057-8.847 5.652 0 11.331 1.905 15.99 5.821 10.516 8.832 11.874 24.484 3.026 35.011zM256.010 124.447c-23.409 0-42.44-19.021-42.44-42.384 0-23.358 19.031-42.378 42.44-42.378 23.419 0 42.409 19.026 42.409 42.378 0 23.363-18.99 42.384-42.409 42.384z" />
<glyph unicode="&#xe6d8;" d="M484.711 308.762h-29.225l1.459 4.101c1.029 3.564 2.575 10.69 2.575 15.785 0 19.348-14.925 35.64-36.541 35.64-20.577 0-32.409-13.24-37.555-29.532l-8.054-26h-71.035l-7.89 24.981c-5.652 18.325-20.060 31.058-40.13 31.058h-4.629c-20.076 0-34.478-12.733-40.151-31.058l-7.823-24.981h-69.832l-7.772 25.488c-5.662 17.817-18.519 30.044-38.078 30.044-23.163 0-37.571-17.311-37.571-35.139 0-6.615 2.048-14.259 3.605-18.841l0.548-1.552h-29.317c-15.068 0.005-27.294-12.093-27.294-27.003s12.226-27.003 27.294-27.003h48.24l47.944-136.914c8.238-23.946 24.187-34.637 43.223-34.637h2.576c19.036 0 34.995 10.69 42.199 33.101l44.257 137.493 43.745-137.493c7.204-22.41 23.147-33.101 42.204-33.101h2.57c19.041 0 34.985 10.69 43.218 34.637l48.773 136.914h48.461c15.068 0 27.289 12.094 27.289 27.003 0.005 14.91-12.216 27.008-27.284 27.008zM152.335 254.745h36.459l-18.478-59.008-17.982 59.008zM342.185 195.226l-18.8 59.52h37.243l-18.442-59.52z" />
<glyph unicode="&#xe6d9;" d="M502.072 409.4c-6.62 6.62-15.319 9.928-23.972 9.928-8.694 0-17.346-3.308-23.972-9.928l-248.294-248.212-52.925 52.93c-6.62 6.62-15.314 9.928-23.972 9.928-8.694 0-17.346-3.308-23.966-9.928-13.245-13.24-13.245-34.698 0-47.938l76.897-76.892c6.62-6.63 15.314-9.938 23.966-9.938 8.699 0 17.351 3.308 23.972 9.938l272.266 272.169c13.235 13.245 13.235 34.703 0 47.943z" />
</font>
</defs>
</svg>
